<svg xmlns="http://www.w3.org/2000/svg" width="208" height="41" viewBox="0 0 208 41" fill="none">
  <g clip-path="url(#clip0_662_4558)">
    <path d="M11.8416 3.93173C17.4822 0.804712 24.7661 0.0720967 30.5404 3.19911C34.4964 5.37115 36.1427 10.0865 36.1427 14.4048C36.2783 22.6194 36.1555 30.8459 36.18 39.0605L32.568 39.0109C32.4816 30.4369 32.7892 21.8619 32.4452 13.2999C32.4698 8.34926 28.096 4.47772 23.3538 4.32881C16.4118 3.50983 10.5147 7.977 5.41664 12.1086C4.49472 7.66628 8.70921 5.70569 11.8416 3.93173ZM49.6078 6.16531C57.2004 -1.42887 71.2926 -0.932519 77.8394 7.77846C80.7015 11.2896 81.2912 15.9305 81.4759 20.3233C70.7628 20.3362 60.0369 20.3481 49.3238 20.3233L49.6186 17.4692C59.0786 17.4325 68.5514 17.507 78.0232 17.4325C77.1268 12.9405 75.1237 8.29962 70.9712 6.00449C63.9438 1.69914 53.8941 4.13126 49.6186 11.2281C44.8891 18.9831 47.3217 31.0196 55.8234 35.0153C63.4651 38.6138 72.6912 36.0953 78.8714 30.7218C79.2783 31.3174 80.0754 32.5087 80.4685 33.1043C73.3674 40.1158 61.5112 41.853 52.8011 37.0136C42.1873 31.0445 40.6393 14.2678 49.6078 6.16531ZM178.349 3.50983C185.56 -0.548343 195.107 -0.51062 202.269 3.67065C205.734 5.55678 207.072 9.44123 207.981 13.0517C207.087 13.0894 205.318 13.1758 204.431 13.2254C203.473 10.5699 202.613 7.45583 199.922 6.04122C193.914 2.60349 185.867 2.67794 179.994 6.38867C176.543 8.47335 176.382 14.2439 180.216 16.0179C187.761 19.9014 197.221 17.7919 204.347 22.7931C208.499 25.6094 208.903 32.2486 205.463 35.7846C202.379 39.0486 197.735 39.8428 193.522 40.5H187.796C180.278 40.0661 172.587 35.4501 171.665 27.3218L175.056 27.1729C176.21 30.97 178.348 34.7552 182.353 35.9832C188.545 38.2058 196.113 38.2674 201.765 34.5447C205.144 32.2248 204.898 26.5167 201.2 24.6425C193.546 20.3868 183.644 22.9301 176.481 17.4831C171.962 13.8339 173.386 6.06604 178.349 3.50983ZM0.0227255 1.95923H3.56101V39.0238C2.67742 39.0238 0.920073 39.0486 0.0355027 39.0486C0.0099484 26.6895 0.0227255 14.3174 0.0227255 1.95823V1.95923ZM129.33 1.95923H132.929C133.029 10.6573 132.757 19.3683 133.04 28.0544C133.101 32.5712 136.861 36.2939 141.223 36.7525C148.336 38.0063 154.786 33.6999 159.897 29.208C159.897 30.2116 159.909 32.197 159.909 33.1897C153.779 38.2664 145.485 41.7766 137.562 39.136C132.721 37.8326 129.588 32.9683 129.44 28.0544C129.158 19.3683 129.416 10.6573 129.33 1.95823V1.95923ZM161.973 1.95923H165.573V39.0367C164.664 39.0367 162.87 39.0367 161.973 39.0238C161.961 26.6766 161.961 14.3174 161.973 1.95823V1.95923Z" fill="white"/>
    <path opacity="0.91" d="M83.5898 1.95802H88.4432C92.6449 6.4371 96.9567 10.8169 101.171 15.2841C102.387 16.4009 102.854 18.014 103.444 19.5031C101.663 19.5904 99.7824 19.4038 98.6767 17.7907C93.6395 12.5174 88.6516 7.20645 83.5898 1.95703V1.95802Z" fill="white"/>
    <path opacity="0.89" d="M119.365 1.9589C121 1.94599 122.633 1.94599 124.268 1.9589C118.666 7.69077 113.358 13.7224 107.584 19.2687L104.254 19.3183C107.756 12.4061 114.488 7.86449 119.365 1.9579V1.9589Z" fill="white"/>
    <path opacity="0.9" d="M97.8415 23.9584C99.1929 22.3701 100.937 21.2533 103.052 20.9922C103.518 23.2754 101.872 24.8766 100.534 26.3528C96.4291 30.6214 92.3513 34.9149 88.235 39.1716C86.6748 39.1447 85.1147 39.1116 83.5547 39.0723C88.1977 33.9222 93.1238 29.046 97.8415 23.9584Z" fill="white"/>
    <path opacity="0.91" d="M104.732 20.9453C106.773 21.3305 108.554 22.3599 109.892 23.9482C114.623 29.0358 119.55 33.9378 124.23 39.087C122.657 39.1118 121.085 39.1376 119.513 39.1495C115.606 35.1539 111.783 31.0719 107.89 27.0504C106.367 25.338 104.253 23.6137 104.732 20.9453Z" fill="white"/>
  </g>
  <defs>
    <clipPath id="clip0_662_4558">
      <rect width="208" height="40" fill="white" transform="translate(0 0.5)"/>
    </clipPath>
  </defs>
</svg>