<svg xmlns="http://www.w3.org/2000/svg" width="149" height="49" viewBox="0 0 149 49" fill="none">
  <g clip-path="url(#clip0_662_4564)">
    <path d="M18.3507 0.00390625H19.6757C24.2757 0.10466 28.8007 1.9686 32.0507 5.26827C30.8507 6.5025 29.6257 7.68635 28.4507 8.92058C26.6257 7.25815 24.4257 5.97354 22.0257 5.52015C18.4757 4.7645 14.6507 5.44459 11.6757 7.48485C8.42573 9.62586 6.22573 13.253 5.75073 17.132C5.22573 20.9606 6.30073 24.9907 8.77573 27.963C11.1507 30.8596 14.7757 32.6732 18.5257 32.7991C22.0257 33.0006 25.6757 31.9175 28.2257 29.4491C30.2257 27.7111 31.1507 25.0663 31.4507 22.4971C27.3007 22.4971 23.1507 22.5223 19.0007 22.4971V17.3083H36.4757C37.3757 22.8749 36.0757 29.1468 31.8757 33.1266C29.0757 35.9477 25.2007 37.6101 21.2507 37.9376C17.4257 38.3154 13.4757 37.5849 10.0757 35.721C6.00073 33.5296 2.75073 29.8269 1.15073 25.4693C-0.349273 21.4644 -0.374272 16.9305 1.02573 12.9003C2.30073 9.22284 4.75073 5.97354 7.90073 3.70659C10.9257 1.46483 14.6007 0.230601 18.3507 0.00390625Z" fill="white"/>
    <path d="M118.602 1.3125H123.952V37.2815C122.177 37.2815 120.377 37.3066 118.602 37.2563C118.627 25.2918 118.602 13.3022 118.602 1.3125Z" fill="white"/>
    <path d="M48.3745 13.782C51.6745 13.1523 55.2495 13.8576 57.9745 15.8475C60.4495 17.6107 62.1745 20.3814 62.6995 23.404C63.3745 26.9052 62.5245 30.7338 60.2745 33.5045C57.8495 36.6027 53.8745 38.2651 49.9995 38.0132C46.4495 37.8117 42.9995 36.0233 40.8995 33.1015C38.5245 29.8774 37.9495 25.4442 39.2495 21.666C40.5495 17.6107 44.2245 14.5125 48.3745 13.782ZM49.1245 18.5678C47.7745 18.9205 46.5245 19.7013 45.6245 20.8096C43.1995 23.7314 43.3495 28.492 46.0245 31.2124C47.5495 32.774 49.8495 33.5045 51.9745 33.0763C53.9495 32.7237 55.6745 31.3887 56.6245 29.6255C58.2745 26.6281 57.7995 22.4972 55.2745 20.1547C53.6495 18.6434 51.2745 18.0137 49.1245 18.5678Z" fill="white"/>
    <path d="M74.8744 13.7839C78.6494 13.0534 82.7744 14.1113 85.5994 16.7813C90.1994 20.9374 90.6994 28.7206 86.7744 33.5064C84.3994 36.529 80.5494 38.1914 76.7494 38.0151C73.1244 37.9143 69.5494 36.1008 67.3994 33.1033C64.9744 29.8037 64.4494 25.2698 65.8244 21.416C67.1994 17.4866 70.7994 14.4892 74.8744 13.7839ZM75.6244 18.5697C74.2744 18.9223 73.0244 19.7031 72.1244 20.7862C69.7244 23.6577 69.8244 28.3428 72.3994 31.0883C73.9244 32.7255 76.2994 33.5316 78.4994 33.0782C80.4494 32.7003 82.1994 31.3905 83.1494 29.6274C84.7744 26.6048 84.2994 22.4739 81.7494 20.1314C80.1244 18.6201 77.7494 18.0155 75.6244 18.5697Z" fill="white"/>
    <path d="M97.3519 15.2417C100.227 13.4281 104.052 12.9244 107.152 14.486C108.127 14.9142 108.927 15.6447 109.702 16.3752C109.727 15.6951 109.702 14.9898 109.727 14.2845C111.402 14.3097 113.077 14.2845 114.777 14.3097V36.5258C114.752 39.8759 113.902 43.4275 111.502 45.8707C108.877 48.5659 104.852 49.3971 101.227 48.8429C97.3519 48.2636 93.9769 45.4173 92.4769 41.8154C93.9769 41.0849 95.5519 40.5056 97.1019 39.8255C97.9769 41.891 99.7519 43.6541 101.977 44.0572C104.202 44.4602 106.777 43.906 108.227 42.0421C109.777 40.1278 109.777 37.5082 109.702 35.1657C108.552 36.2991 107.227 37.3067 105.627 37.6845C102.152 38.6669 98.3269 37.4578 95.6519 35.0901C92.9519 32.7224 91.3519 29.0701 91.5019 25.443C91.5769 21.3373 93.8769 17.3827 97.3519 15.2417ZM102.527 18.4658C101.002 18.7177 99.5769 19.5741 98.6019 20.7579C96.2519 23.579 96.2519 28.0877 98.6269 30.8585C99.9769 32.4957 102.152 33.4025 104.252 33.1758C106.227 32.9743 108.052 31.7149 109.027 29.9769C110.677 27.0298 110.402 23.0249 108.177 20.4557C106.802 18.8688 104.602 18.088 102.527 18.4658Z" fill="white"/>
    <path d="M130.376 16.5264C133.376 13.7053 138.001 12.7481 141.851 14.2343C145.501 15.6196 147.826 19.1208 149.001 22.7227C143.576 24.9897 138.176 27.2314 132.751 29.4984C133.501 30.9341 134.651 32.2439 136.201 32.7729C138.376 33.5537 140.976 33.2766 142.801 31.8157C143.526 31.2616 144.101 30.5311 144.651 29.8258C146.026 30.7578 147.401 31.6646 148.776 32.5966C146.826 35.5436 143.551 37.609 140.026 37.9365C136.126 38.4151 131.976 36.9038 129.451 33.8308C125.301 28.9946 125.701 20.884 130.376 16.5264ZM133.051 21.1862C132.201 22.4205 131.851 23.9318 131.876 25.4179C135.501 23.9066 139.126 22.3953 142.751 20.8588C142.151 19.4482 140.701 18.5918 139.226 18.3651C136.851 17.9369 134.376 19.2215 133.051 21.1862Z" fill="white"/>
  </g>
  <defs>
    <clipPath id="clip0_662_4564">
      <rect width="149" height="49" fill="white"/>
    </clipPath>
  </defs>
</svg>