<svg xmlns="http://www.w3.org/2000/svg" width="157" height="49" viewBox="0 0 157 49" fill="none">
  <g clip-path="url(#clip0_662_4581)">
    <path d="M112.996 29.6103C112.773 29.7305 112.544 29.8766 112.314 29.9769C111.635 30.2865 110.94 30.3669 110.318 30.3669C109.655 30.3669 108.627 30.3237 107.574 29.5723C106.112 28.545 105.473 26.7906 105.473 25.2541C105.473 22.0842 108.074 20.5312 110.193 20.5312C110.938 20.5312 111.701 20.7163 112.315 21.1045C113.35 21.7772 113.615 22.6592 113.763 23.1296L108.916 25.0699L107.332 25.1979C107.845 27.7867 109.617 29.3008 111.574 29.3008C112.627 29.3008 113.388 28.935 114.09 28.5874L112.996 29.6103ZM111.061 23.5178C111.448 23.3752 111.658 23.2524 111.658 22.9627C111.658 22.1465 110.729 21.204 109.616 21.204C108.793 21.204 107.244 21.8404 107.244 24.0505C107.244 24.3955 107.285 24.7656 107.307 25.1313L111.061 23.5178Z" fill="white"/>
    <path d="M104.976 30.059H101.326C101.802 29.4503 101.883 29.3845 101.883 28.9825V25.65C101.883 24.0538 101.904 21.7815 101.972 19.6561C101.987 18.6116 102.068 17.3042 102.088 16.3634H100.484L102.029 15.625H104.978C104.339 15.9951 104.133 16.1187 104.051 16.8347C103.887 18.4075 103.866 20.9012 103.866 23.8065V28.5259C103.866 29.3223 104.011 29.4485 104.69 29.5039C105.039 29.5514 105.391 29.573 105.741 29.6111L104.976 30.059Z" fill="white"/>
    <path d="M98.2167 21.5336C98.692 21.9227 99.6785 22.7424 99.6785 24.2971C99.6785 25.8076 98.8133 26.5236 97.9489 27.1998C97.6803 27.4618 97.368 27.7523 97.368 28.2028C97.368 28.6481 97.6803 28.8945 97.9044 29.077L98.6493 29.6502C99.5555 30.4094 100.379 31.102 100.379 32.5123C100.379 34.4371 98.5045 36.3748 94.9555 36.3748C91.969 36.3748 90.5246 34.9697 90.5246 33.4548C90.5246 32.719 90.8953 31.6744 92.112 30.9585C93.3898 30.1837 95.1221 30.0765 96.0475 30.0186C95.7614 29.6502 95.4317 29.2663 95.4317 28.6317C95.4317 28.2797 95.5329 28.0809 95.6384 27.831C95.4099 27.8517 95.1849 27.8716 94.9808 27.8716C92.7915 27.8716 91.5582 26.2581 91.5582 24.6628C91.5582 23.7238 91.9873 22.6775 92.8717 21.9227C94.0518 20.9611 95.4526 20.7986 96.5647 20.7986H100.812L99.491 21.5344L98.2167 21.5336ZM96.7496 30.61C96.5856 30.5919 96.4836 30.5919 96.2769 30.5919C96.0911 30.5919 94.9816 30.6325 94.1129 30.9196C93.6594 31.0821 92.3379 31.5715 92.3379 33.0259C92.3379 34.4743 93.7631 35.5196 95.9664 35.5196C97.9472 35.5196 99.0008 34.5763 99.0008 33.313C98.9999 32.2685 98.317 31.7168 96.7496 30.61ZM97.3506 26.7302C97.8224 26.2581 97.8652 25.6062 97.8652 25.2361C97.8652 23.7687 96.979 21.4713 95.2686 21.4713C94.7287 21.4713 94.153 21.7393 93.8242 22.1457C93.4718 22.5772 93.3698 23.1315 93.3698 23.6615C93.3698 25.0312 94.1731 27.3009 95.9472 27.3009C96.4653 27.3018 97.0183 27.0536 97.3506 26.7302ZM85.457 30.323C82.1784 30.323 80.4235 27.7912 80.4235 25.5033C80.4235 22.8202 82.6302 20.5314 85.764 20.5314C88.7959 20.5314 90.6912 22.8824 90.6912 25.3571C90.6938 27.7722 88.8168 30.323 85.457 30.323ZM88.0344 28.6662C88.5255 28.0143 88.6511 27.2006 88.6511 26.4017C88.6511 24.604 87.7841 21.1678 85.2294 21.1678C84.5475 21.1747 83.8898 21.4193 83.3715 21.8587C82.57 22.5772 82.4243 23.4799 82.4243 24.3584C82.4243 26.3835 83.4361 29.7116 85.9289 29.7116C86.7339 29.7116 87.5591 29.3225 88.0344 28.6662ZM74.4854 30.323C71.2076 30.323 69.4544 27.7912 69.4544 25.5033C69.4544 22.8202 71.6585 20.5314 74.795 20.5314C77.8251 20.5314 79.7222 22.8824 79.7222 25.3571C79.7222 27.7722 77.8443 30.323 74.4854 30.323ZM77.0611 28.6662C77.5556 28.0143 77.6803 27.2006 77.6803 26.4017C77.6803 24.604 76.8142 21.1678 74.2586 21.1678C73.5783 21.1678 72.8962 21.435 72.4025 21.8587C71.5966 22.5772 71.451 23.4799 71.451 24.3584C71.451 26.3835 72.4645 29.7116 74.959 29.7116C75.7632 29.7116 76.5866 29.3225 77.0611 28.6662ZM68.1243 29.6131L65.3585 30.2434C64.2368 30.4137 63.2312 30.5711 62.1688 30.5711C56.8352 30.5711 54.8047 26.6784 54.8047 23.6347C54.8047 19.9149 57.6865 16.4648 62.6163 16.4648C63.6577 16.4648 64.6634 16.6179 65.5705 16.8695C67.0218 17.2707 67.6987 17.7662 68.1261 18.055L66.5203 19.5682L65.8443 19.7229L66.3267 18.9577C65.6699 18.3222 64.4723 17.1531 62.1889 17.1531C59.1387 17.1531 56.837 19.4566 56.837 22.8072C56.837 26.4129 59.4667 29.8059 63.6778 29.8059C64.9163 29.8059 65.5556 29.5569 66.1322 29.3225V26.2391L63.2137 26.3956L64.7602 25.5707H68.8579L68.3546 26.0506C68.2203 26.1639 68.2002 26.2037 68.1618 26.3567C68.1435 26.5288 68.1261 27.0848 68.1261 27.275V29.6157M121.86 30.0592H120.393L118.254 20.8012H119.408L121.165 29.1038L122.998 20.8012H124.485L126.337 29.1038L128.053 20.8012H129.19L127.071 30.0592H125.603L123.751 21.7956L121.86 30.0592ZM136.003 23.6338C136.003 22.1224 135.329 21.5483 133.785 21.5483C132.593 21.5483 131.874 22.1994 131.702 23.269L130.661 23.1176C130.87 21.6053 132.067 20.5928 133.824 20.5928C135.889 20.5928 137.043 21.4713 137.043 23.518V28.2426C137.043 29.0458 137.101 29.5984 137.219 30.0601H136.137C136.042 29.8119 136.003 29.3511 136.003 29.0856C135.561 29.7324 134.519 30.2711 133.538 30.2711C131.815 30.2711 130.467 29.2343 130.467 27.173C130.467 25.2776 131.837 24.227 133.785 24.227C134.732 24.227 135.504 24.3982 136.003 24.6291V23.6338ZM136.003 25.6217C135.481 25.3718 134.752 25.1643 133.768 25.1643C132.455 25.1643 131.529 25.8128 131.529 27.1721C131.529 28.6049 132.395 29.294 133.592 29.294C134.653 29.294 135.617 28.5288 136.004 27.7065V25.6217M139.172 16.8617H140.23V30.0592H139.172V16.8617ZM142.488 16.8617H143.551V30.0592H142.488V16.8617ZM148.818 29.2741C149.958 29.2741 150.787 28.6049 150.995 26.8643L152.075 27.0182C151.806 29.2542 150.511 30.2702 148.818 30.2702C146.595 30.2702 145.287 28.6619 145.287 25.3537C145.287 22.3887 146.404 20.5928 148.702 20.5928C151.114 20.5928 152.075 22.5789 152.075 25.2767V25.6209H146.388C146.387 28.1647 147.349 29.2741 148.818 29.2741ZM150.943 24.6654V24.6282C150.882 22.9058 150.187 21.5664 148.705 21.5664C147.255 21.5664 146.467 22.7718 146.388 24.6654H150.943ZM157.002 30.0013C156.767 30.0947 156.342 30.1708 155.882 30.1708C154.491 30.1708 154.046 29.4851 154.046 28.1647V21.7584H152.831V20.8012H154.046V17.8181L155.13 17.397V20.8012H157.002V21.7584H155.131V28.0316C155.131 28.9101 155.3 29.1617 156.055 29.1617C156.422 29.1617 156.749 29.0847 157.002 28.9507V30.0013Z" fill="white"/>
    <path d="M17.6371 22.0461C14.8862 18.2856 11.0571 14.9921 6.71785 12.6895C6.18941 12.4085 5.61027 12.2335 5.01355 12.1746C4.41683 12.1157 3.81425 12.174 3.24029 12.3462C2.66632 12.5184 2.13223 12.8011 1.66858 13.1781C1.20493 13.5551 0.820806 14.019 0.538194 14.5433C-0.0315836 15.6019 -0.154597 16.8412 0.196138 17.9895C0.546873 19.1378 1.34272 20.1013 2.4091 20.6687C9.10424 24.2199 13.4243 30.9938 13.9302 38.8225V38.8043C13.8466 37.9307 14.0103 37.0513 14.403 36.2648C14.457 36.1533 14.5207 36.0322 14.6018 35.9016C16.6949 32.4801 17.7995 28.5543 17.795 24.5528C17.795 23.7115 17.734 22.8762 17.6371 22.0461Z" fill="white"/>
    <path d="M44.1427 13.525C43.3348 10.0166 42.1403 6.6069 40.5806 3.35733C40.1678 2.50483 39.5209 1.78495 38.7142 1.28025C37.9075 0.775559 36.9737 0.50649 36.0198 0.503906C35.2688 0.503906 34.5396 0.666465 33.8567 0.989853C31.3456 2.17446 30.2745 5.17314 31.4694 7.65648C34.032 13.0131 35.2984 18.6716 35.2984 24.5505C35.2984 30.4268 34.025 36.0809 31.5122 41.3502C31.4746 41.4289 31.035 42.361 31.035 43.4393C31.0338 43.8299 31.0768 44.2194 31.1633 44.6005C31.3305 45.3392 31.6655 46.0304 32.1428 46.6213C32.6201 47.2123 33.2272 47.6875 33.9177 48.0108C34.5905 48.3282 35.3262 48.4927 36.0712 48.4924C36.9748 48.4892 37.8612 48.2469 38.6387 47.7906C39.4163 47.3343 40.0568 46.6805 40.4942 45.8967C41.5008 44.0255 42.5178 41.5612 43.4048 38.3947C43.6831 37.441 43.9186 36.5452 44.1384 35.5759C44.9696 31.9586 45.3891 28.2604 45.3891 24.5505C45.3865 20.8409 44.9685 17.1431 44.1427 13.525Z" fill="white"/>
    <path d="M22.838 8.29311C22.7476 8.14849 22.6495 8.00879 22.544 7.87461C22.0983 7.29594 21.5249 6.82613 20.8677 6.50118C20.2104 6.17624 19.4869 6.0048 18.7525 6C17.9815 6 17.5863 6.09425 17.0325 6.31388C16.4629 6.53783 15.8602 6.84565 15.3151 7.41633C14.8317 7.91659 14.4591 8.51153 14.2213 9.16297C13.7643 10.3701 13.8184 11.9576 14.6164 13.2287C16.292 15.8979 17.2776 18.9277 17.6395 22.0466C17.7364 22.8767 17.7957 23.7128 17.7957 24.555C17.7957 28.5688 16.6923 32.4936 14.6025 35.903C14.0677 36.7768 13.8327 37.7988 13.9326 38.8161C14.0005 39.5563 14.2423 40.2705 14.6387 40.9014C15.0351 41.5324 15.575 42.0625 16.2152 42.4494C16.5624 42.6552 16.9313 42.8134 17.3133 42.9285C18.3334 43.2418 19.4299 43.2071 20.4278 42.83C21.4256 42.4529 22.2671 41.755 22.8179 40.848C25.8235 35.9362 27.4096 30.3 27.4031 24.555C27.4071 18.8229 25.8283 13.1991 22.838 8.29311Z" fill="white"/>
    <path d="M31.5099 41.3526C34.0236 36.0824 35.297 30.4283 35.297 24.5511C35.297 22.5304 35.1583 21.0578 35.0519 20.1231C31.748 14.8841 26.9578 10.201 21.3477 6.77344C21.3511 6.7743 21.4776 6.85904 21.4872 6.86423C21.8745 7.14006 22.2024 7.43232 22.5443 7.87071C22.6494 8.00546 22.7475 8.14543 22.8383 8.29008C25.8285 13.1955 27.4073 18.8187 27.4035 24.5503C27.4035 25.2351 27.3808 25.9208 27.3372 26.6021C29.734 31.1218 31.0406 36.2605 31.0406 41.6483C31.0406 42.0746 31.0485 42.7663 31.0371 43.2696C31.0684 42.6931 31.1936 42.1255 31.4078 41.5886C31.4401 41.5091 31.4724 41.4287 31.5099 41.3526Z" fill="white"/>
  </g>
  <defs>
    <clipPath id="clip0_662_4581">
      <rect width="157" height="48" fill="white" transform="translate(0 0.5)"/>
    </clipPath>
  </defs>
</svg>