<svg width="422" height="55" viewBox="0 0 422 55" fill="none" xmlns="http://www.w3.org/2000/svg">
<g clip-path="url(#clip0_757_899)" filter="url(#filter0_d_757_899)">
<path d="M173.425 23.3124H167.462C166.837 23.3124 162.423 22.9016 162.201 23.4585L159.589 30.0156C159.221 30.9421 158.853 31.8685 158.483 32.7923C158.325 33.1907 156.727 32.9384 156.301 32.9384C159.812 24.2347 163.326 15.5325 166.839 6.82882L167.33 5.6073C167.396 5.44462 168.517 5.40326 168.635 5.70243L170.401 10.1708L177.004 26.8736C177.804 28.8961 178.603 30.9186 179.405 32.9384C178.973 32.9384 177.343 33.1907 177.185 32.7923L175.952 29.6847C175.109 27.5601 174.266 25.4383 173.425 23.3124ZM162.954 21.5959H172.786C171.14 17.2682 169.331 12.9654 167.918 8.55494C166.657 13.0012 164.645 17.3 162.954 21.5959ZM190.307 12.2677C191.621 12.2677 192.956 12.4828 194.141 13.0701C195.459 13.7236 196.142 14.9341 197.149 15.8123C197.02 13.1239 197.036 10.4368 197.036 7.74565V4.2879C197.036 3.54341 198.18 3.91014 198.801 3.91014C198.967 3.91014 198.88 12.6813 198.88 13.3211V32.8309C198.88 33.0611 197.681 33.0928 197.628 32.7413L197.188 29.8405C196.219 30.392 195.526 31.699 194.42 32.3235C192.988 33.1314 191.335 33.3768 189.706 33.2955C186.158 33.1204 183.36 31.1227 182.278 27.7408C180.245 21.3947 182.296 12.2677 190.307 12.2677C191.785 12.2677 187.486 12.2677 190.307 12.2677ZM190.307 13.9484C184.883 13.9484 183.478 19.1488 183.603 23.635C183.709 27.425 185.172 31.2247 189.445 31.6314C195.104 32.165 197.036 28.0317 197.036 23.0891C197.07 18.4098 195.815 13.9484 190.307 13.9484C192.675 13.9484 188.075 13.9484 190.307 13.9484ZM218.411 27.658C218.411 32.005 214.062 33.312 210.403 33.312C208.499 33.312 206.534 33.1369 204.747 32.4448C203.542 31.9788 203.898 31.2523 203.898 30.0652C206.991 31.5983 213.209 32.9646 215.871 29.8598C219.444 25.6934 211.208 23.4048 208.847 22.3942C205.768 21.0776 202.47 17.5812 205.489 14.3137C208.417 11.1455 214.465 12.0347 217.997 13.4989L217.331 15.1065C217.366 15.0196 213.385 14.06 212.884 14.009C210.493 13.765 205.881 14.1524 206.318 17.5564C206.671 20.311 210.385 21.1465 212.537 21.9516C215.215 22.9539 218.411 24.3368 218.411 27.658C218.411 29.4738 218.411 26.7522 218.411 27.658ZM239.803 3.81777C241.716 3.81777 241.531 3.63992 241.531 5.35087V42.1342C241.531 42.6609 239.803 42.7905 239.803 41.7868V36.7808V3.81777ZM278.21 23.3124H272.247C271.622 23.3124 267.208 22.9016 266.987 23.4585L264.373 30.0156C264.004 30.9421 263.636 31.8685 263.267 32.7923C263.11 33.1907 261.511 32.9384 261.086 32.9384L271.625 6.82882L272.117 5.6073C272.183 5.44462 273.303 5.40326 273.421 5.70243L275.187 10.1708L281.789 26.8736C282.587 28.8958 283.388 30.9174 284.189 32.9384C283.757 32.9384 282.128 33.1907 281.968 32.7923L280.734 29.6847C279.895 27.5601 279.05 25.4383 278.21 23.3124ZM267.739 21.5959H277.571C275.922 17.2669 274.119 12.964 272.701 8.55494C271.446 13.0012 269.43 17.3013 267.739 21.5959ZM295.09 12.2677C296.406 12.2677 297.741 12.4828 298.927 13.0701C300.243 13.7236 300.929 14.93 301.934 15.8123C301.806 13.1239 301.822 10.4368 301.822 7.74565V4.2879C301.822 3.54341 302.964 3.91014 303.587 3.91014C303.752 3.91014 303.667 12.6813 303.667 13.3211V32.8309C303.667 33.0611 302.47 33.0928 302.416 32.7413L301.977 29.8405C301.008 30.3947 300.316 31.699 299.209 32.3235C297.777 33.1314 296.124 33.3768 294.495 33.2955C290.946 33.1204 288.149 31.1227 287.065 27.7408C285.031 21.3947 287.081 12.2677 295.09 12.2677C296.572 12.2677 292.271 12.2677 295.09 12.2677ZM295.09 13.9484C289.667 13.9484 288.26 19.1488 288.388 23.635C288.494 27.4264 289.958 31.2247 294.23 31.6314C299.887 32.165 301.822 28.0317 301.822 23.0891C301.854 18.4098 300.6 13.9484 295.09 13.9484C297.459 13.9484 292.863 13.9484 295.09 13.9484ZM332.897 32.9384C332.465 32.9384 331.396 33.2086 331.257 32.7357L330.634 30.5602C329.854 27.8455 329.079 25.1309 328.3 22.419C326.894 17.5192 325.288 12.6152 324.154 7.64363C323.18 12.9336 321.416 18.1478 319.957 23.3165L318.041 30.1024C317.938 30.4595 317.406 32.9412 317.145 32.9412C316.846 32.9412 315.842 33.1149 315.617 32.9412C315.175 32.5992 314.973 30.6139 314.833 30.1024L308.06 5.66383C308.38 5.66383 310.022 5.48874 310.097 5.75482C310.25 6.31733 310.408 6.87983 310.56 7.44372L312.63 15.0072C313.979 19.9222 315.611 24.8979 316.502 29.9149C317.385 24.9572 319.025 20.0711 320.403 15.2278L322.517 7.77874C322.702 7.12938 322.887 6.48001 323.068 5.83065C323.19 5.4074 324.579 5.66107 324.972 5.66107C325.624 5.66107 326.003 8.29023 326.16 8.83895L328.369 16.4479C329.664 20.908 331.182 25.4011 332.122 29.9508C332.697 26.7881 333.662 23.6791 334.501 20.5785C335.293 17.6488 336.091 14.719 336.884 11.7907C337.376 9.99153 337.861 8.19234 338.353 6.39178C338.654 5.27918 339.414 5.65969 340.488 5.65969C337.961 14.7549 335.428 23.8473 332.897 32.9384ZM361.77 22.7706C361.77 28.0606 359.07 33.0184 353.253 33.2982C346.683 33.614 343.498 28.0041 343.696 22.1198C343.875 16.7664 347.006 12.2677 352.765 12.2677C358.806 12.2677 361.77 17.2738 361.77 22.7706C361.77 26.0781 361.77 19.5127 361.77 22.7706ZM345.642 22.7706C345.642 27.1989 347.691 31.6342 352.73 31.6342C357.772 31.6342 359.819 27.1989 359.819 22.7706C359.819 18.3202 357.736 13.9484 352.693 13.9484C347.641 13.9484 345.642 18.3353 345.642 22.7706C345.642 25.5555 345.642 19.9608 345.642 22.7706ZM375.477 12.2677C376.411 12.2677 377.342 12.3684 378.259 12.5283L377.903 14.3013C372.989 13.0825 369.559 16.2218 369.307 21.0844C369.209 23.0353 369.289 25.0082 369.289 26.9604V32.9205C369.289 32.9288 367.428 32.9936 367.428 32.8984V31.4715V16.5003C367.428 15.9888 367.035 13.0205 367.428 12.6579C367.575 12.5214 368.486 12.6579 368.695 12.6579C369.159 12.6579 369.016 12.8523 369.039 13.299C369.093 14.3041 369.143 15.3091 369.195 16.3142C369.916 15.6759 370.429 14.5288 371.212 13.7967C372.375 12.7172 373.906 12.2677 375.477 12.2677C376.343 12.2677 374.123 12.2677 375.477 12.2677ZM389.895 12.2677C391.208 12.2677 392.543 12.4828 393.73 13.0701C395.048 13.725 395.732 14.9341 396.739 15.8123C396.608 13.1253 396.625 10.4368 396.625 7.74565V4.2879C396.625 3.54341 397.77 3.91014 398.391 3.91014C398.555 3.91014 398.47 12.6813 398.47 13.3211V32.8309C398.47 33.0611 397.273 33.0928 397.218 32.7413C397.074 31.7748 396.924 30.8097 396.778 29.8405C395.81 30.3947 395.118 31.699 394.01 32.3235C392.578 33.1314 390.925 33.3768 389.297 33.2955C385.748 33.1204 382.95 31.1227 381.867 27.7408C379.834 21.396 381.883 12.2677 389.895 12.2677C391.374 12.2677 387.074 12.2677 389.895 12.2677ZM389.895 13.9484C384.472 13.9484 383.066 19.1502 383.193 23.635C383.299 27.425 384.762 31.2247 389.035 31.6314C394.693 32.165 396.625 28.0317 396.625 23.0891C396.658 18.4098 395.404 13.9484 389.895 13.9484C392.265 13.9484 387.664 13.9484 389.895 13.9484ZM417.999 27.658C417.999 32.005 413.65 33.312 409.989 33.312C408.087 33.312 406.122 33.1369 404.336 32.4448C403.131 31.9788 403.488 31.2523 403.488 30.0652C406.582 31.5983 412.795 32.9646 415.46 29.8598C419.034 25.6934 410.796 23.4034 408.434 22.3942C405.354 21.0762 402.057 17.5812 405.078 14.3137C408.005 11.1469 414.055 12.0347 417.584 13.4989C417.363 14.0352 417.142 14.5702 416.918 15.1065C416.955 15.0182 412.973 14.06 412.474 14.009C410.08 13.765 405.471 14.1524 405.904 17.5564C406.257 20.311 409.972 21.1465 412.124 21.9516C414.803 22.9539 417.999 24.3368 417.999 27.658C417.999 29.4738 417.999 26.7522 417.999 27.658Z" fill="white"/>
<path d="M140.009 10.9817C141.069 10.6466 141.742 12.1425 141.742 13.0028C141.935 12.5616 142.511 11.7386 142.511 11.2519C142.511 11.1223 142.086 11.1802 142.031 11.1885C142.472 10.8686 142.989 10.9817 143.523 10.9817C143.154 11.4697 143.236 13.1352 143.78 13.5281C142.442 13.7528 142.685 12.4982 142.624 11.5069C142.479 11.8516 142.132 13.1945 141.903 13.3709C141.515 13.495 141.3 13.7721 141.127 13.3227C140.894 12.7112 140.644 12.1062 140.377 11.5083C140.315 12.0777 139.81 13.4371 140.698 13.4178C140.415 13.5515 140.159 13.5529 139.831 13.5295C140.166 13.0345 140.602 11.1733 139.719 11.1733L140.009 10.9817Z" fill="white"/>
<path d="M139.85 10.9785C139.791 11.1853 139.72 11.3355 139.529 11.4224C139.673 11.137 139.287 11.1673 139.112 11.1673C138.605 11.1673 138.824 12.058 138.813 12.4812C138.801 12.9472 138.708 13.4918 139.352 13.4298C138.901 13.62 138.396 13.5401 137.907 13.5401C138.242 12.8686 138.116 11.9187 138.116 11.1673C137.94 11.135 137.759 11.1426 137.587 11.1896C137.415 11.2367 137.255 11.3219 137.121 11.4389C137.273 10.5759 139.187 11.0143 139.85 10.9785Z" fill="white"/>
<path d="M135.15 31.5474C131.933 33.2432 128.151 33.9573 124.676 32.4518C121.004 30.8622 118.755 27.1549 118.279 23.307C117.456 16.692 122.552 10.6658 129.442 11.0959C133.104 11.3248 135.773 13.5224 136.851 16.9347C136.749 17.1415 135.728 17.3841 135.527 17.4655L132.452 18.698L126.437 21.1093C125.19 21.6084 123.68 21.483 122.351 21.5836C122.985 24.8042 124.673 27.9683 127.599 29.6696C130.864 31.5681 134.386 30.8167 137.606 29.2395C136.787 30.0101 135.968 30.7808 135.15 31.5474ZM130.788 17.7936C132.74 17.0891 132.21 15.3161 130.964 14.0574C129.726 12.8083 127.897 12.2899 126.203 12.7945C122.249 13.9719 122.137 18.05 122.333 21.4554L130.788 17.7936Z" fill="white"/>
<path d="M117.067 32.5501H108.839C110.075 30.9619 110.09 30.0533 110.09 28.1549V22.8111C110.09 15.7563 110.447 8.71951 110.556 1.6689H106.93C108.206 1.0609 109.614 0.0117188 111.053 0.0117188H117.053C115.431 0.942333 115.042 1.74611 114.888 3.59079C114.725 5.54577 114.663 7.5104 114.621 9.47089C114.543 12.9755 114.55 16.4801 114.55 19.9848V27.8543C114.55 28.5671 114.503 29.3157 114.596 30.0202C114.829 31.7863 117.487 31.4168 118.786 31.5478L117.067 32.5501Z" fill="white"/>
<path d="M101.83 13.321C104.261 15.3022 105.699 18.0996 104.942 21.2843C104.561 22.8864 103.55 24.1575 102.317 25.2177C101.032 26.3193 98.8787 27.9379 100.501 29.7522C102.189 31.6424 104.635 32.6171 105.927 34.9333C107.452 37.6618 106.624 41.0271 104.54 43.2082C100.322 47.6241 89.5746 48.7547 85.5818 43.4343C83.891 41.1774 84.3064 38.1567 86.157 36.1176C88.8188 33.1852 93.2035 32.6999 96.9365 32.471C95.7 30.9062 95.186 29.4406 96.0057 27.5367C92.0517 27.902 88.0978 26.2917 87.028 22.1736C85.8277 17.5522 89.3732 13.4093 93.6883 12.2098C98.0229 11.0062 103.215 11.6804 107.669 11.6804L104.746 13.3141C104.157 13.6423 102.484 13.3652 101.83 13.321ZM98.5244 33.8083C95.6931 33.4457 91.6072 34.0524 89.6357 36.3231C87.117 39.2238 89.3412 42.9366 92.4282 44.1278C95.5819 45.3438 101.085 45.4872 103.017 42.1135C105.175 38.3552 101.2 35.6806 98.5244 33.8083ZM99.8721 25.0371C103.851 21.0196 97.7381 9.29389 92.2698 14.3302C87.7727 18.4759 94.383 30.6001 99.8721 25.0371Z" fill="white"/>
<path d="M73.0187 33.155C67.0392 33.155 61.9321 28.728 61.6848 22.688C61.4236 16.2661 66.8655 11.3276 73.1243 11.0726C79.4317 10.8134 84.8082 15.5878 84.8082 21.949C84.8277 28.3861 79.3289 33.155 73.0187 33.155ZM78.8245 29.4298C81.3558 26.0892 80.2444 20.3594 78.5231 16.8755C76.5239 12.8304 71.4113 10.6507 67.8602 14.5014C64.901 17.7096 66.1736 23.7082 67.9241 27.2253C69.9206 31.2441 75.55 33.9602 78.8245 29.4298Z" fill="white"/>
<path d="M48.2985 33.155C42.3204 33.155 37.2134 28.7253 36.9661 22.688C36.7049 16.2661 42.1467 11.3276 48.4055 11.0726C54.7129 10.8134 60.0895 15.5878 60.0895 21.949C60.1075 28.3861 54.6101 33.155 48.2985 33.155ZM54.1044 29.4298C56.6343 26.0892 55.5229 20.3594 53.8015 16.8755C51.8023 12.8304 46.6897 10.6507 43.1387 14.5014C40.1795 17.7096 41.4535 23.7096 43.204 27.2253C45.2129 31.2634 50.8034 33.9312 54.1044 29.4298Z" fill="white"/>
<path d="M34.0065 31.5454C28.3187 32.851 22.4267 34.464 16.5597 33.3445C10.1801 32.1272 5.41621 27.3238 4.25893 20.9888C3.07942 14.542 5.99555 7.87882 11.6639 4.46795C18.3255 0.458723 27.6699 1.20597 34.0065 5.47025C32.3505 7.04058 31.1182 8.72671 28.8731 9.24234C29.1537 8.79564 30.1748 7.70924 29.7664 7.31493C28.8814 6.46015 27.9394 5.67154 26.8711 5.04975C23.866 3.30433 20.0469 2.97896 16.7487 4.04607C9.99255 6.23542 7.50015 13.6914 9.04366 20.1078C10.6594 26.8261 16.4153 31.7342 23.4201 31.9659C25.2539 32.0265 27.0698 31.8183 28.7939 31.18C29.7858 30.8119 29.5302 30.521 29.5302 29.5132V23.9364L22.938 24.2893C23.9911 23.7254 25.0455 23.1629 26.0959 22.5963C26.7044 22.2696 27.481 22.424 28.1603 22.424H35.657C35.2152 22.8431 34.54 23.2953 34.2177 23.8178C33.7884 24.5113 34.0065 25.7563 34.0065 26.5518V31.5454Z" fill="white"/>
</g>
<defs>
<filter id="filter0_d_757_899" x="0" y="0" width="422" height="55" filterUnits="userSpaceOnUse" color-interpolation-filters="sRGB">
<feFlood flood-opacity="0" result="BackgroundImageFix"/>
<feColorMatrix in="SourceAlpha" type="matrix" values="0 0 0 0 0 0 0 0 0 0 0 0 0 0 0 0 0 0 127 0" result="hardAlpha"/>
<feOffset dy="4"/>
<feGaussianBlur stdDeviation="2"/>
<feComposite in2="hardAlpha" operator="out"/>
<feColorMatrix type="matrix" values="0 0 0 0 0 0 0 0 0 0 0 0 0 0 0 0 0 0 0.25 0"/>
<feBlend mode="normal" in2="BackgroundImageFix" result="effect1_dropShadow_757_899"/>
<feBlend mode="normal" in="SourceGraphic" in2="effect1_dropShadow_757_899" result="shape"/>
</filter>
<clipPath id="clip0_757_899">
<rect width="414" height="47" fill="white" transform="translate(4)"/>
</clipPath>
</defs>
</svg>
