<svg xmlns="http://www.w3.org/2000/svg" width="143" height="31" viewBox="0 0 143 31" fill="none">
  <g clip-path="url(#clip0_662_3930)">
    <path fill-rule="evenodd" clip-rule="evenodd" d="M15.1939 3.53943L17.2105 0L22.9274 3.34567L20.9117 6.88433C20.5576 7.5051 21.0875 8.25995 21.7819 8.12432L25.6452 7.3687L26.8955 13.9384L23.0322 14.6932C16.783 15.9146 12.012 9.12563 15.1939 3.53943Z" fill="#3A724F"/>
    <path fill-rule="evenodd" clip-rule="evenodd" d="M11.7015 27.4619L9.685 31.0013L3.96729 27.6564L5.98382 24.117C6.33788 23.4962 5.80794 22.7414 5.11282 22.877L1.25029 23.6319L0 17.063L3.86329 16.3081C10.1125 15.0867 14.8827 21.8757 11.7015 27.4619Z" fill="#DC8E43"/>
    <path fill-rule="evenodd" clip-rule="evenodd" d="M11.8758 3.53943L9.86002 0L4.14231 3.34567L6.15884 6.88433C6.51213 7.5051 5.98296 8.25995 5.28784 8.12432L1.42455 7.3687L0.175781 13.9384L4.03831 14.6932C10.2883 15.9146 15.0593 9.12563 11.8765 3.53943H11.8758Z" fill="black"/>
    <path fill-rule="evenodd" clip-rule="evenodd" d="M15.0272 27.4619L17.0422 31.0013L22.7599 27.6564L20.7434 24.117C20.3901 23.4962 20.9193 22.7414 21.6144 22.877L25.4769 23.6319L26.7272 17.063L22.8639 16.3081C16.6147 15.0867 11.8445 21.8757 15.0257 27.4619H15.0272Z" fill="#C85D1B"/>
    <path d="M124.733 23.3701V16.7826C124.733 15.8697 124.94 15.0505 125.355 14.3259C125.784 13.5865 126.392 13.0068 127.179 12.586C127.966 12.166 128.902 11.9559 129.989 11.9559C130.496 11.9509 131.001 12.0166 131.491 12.1512C131.949 12.2675 132.363 12.4341 132.735 12.6511C133.121 12.8542 133.45 13.1006 133.722 13.3905H133.765C134.057 13.0965 134.389 12.8474 134.752 12.6511C135.15 12.4288 135.576 12.2608 136.018 12.1512C136.515 12.0176 137.027 11.9519 137.541 11.9559C138.628 11.9559 139.565 12.1652 140.352 12.586C141.138 13.0068 141.746 13.5858 142.175 14.3259C142.604 15.0505 142.818 15.8689 142.818 16.7826V23.3701H139.471V16.8911C139.471 16.5292 139.379 16.2029 139.193 15.9131C139.022 15.6099 138.779 15.3555 138.485 15.1737C138.175 14.9826 137.818 14.8845 137.455 14.8909C137.069 14.8909 136.718 14.9854 136.404 15.1737C136.11 15.3553 135.866 15.6097 135.696 15.9131C135.523 16.2087 135.433 16.5472 135.438 16.8911V23.3701H132.113V16.8911C132.113 16.5292 132.02 16.2029 131.834 15.9131C131.66 15.6055 131.408 15.3504 131.105 15.1737C130.795 14.9826 130.438 14.8845 130.075 14.8909C129.688 14.8909 129.338 14.9854 129.024 15.1737C128.73 15.3553 128.486 15.6097 128.316 15.9131C128.143 16.2088 128.054 16.5473 128.058 16.8911V23.3701H124.733ZM117.46 23.6313C116.331 23.6313 115.35 23.4143 114.521 22.9788C113.706 22.5293 113.077 21.9279 112.633 21.1746C112.19 20.4065 111.968 19.5579 111.968 18.6302V12.2163H115.294V18.5434C115.294 18.9348 115.386 19.2975 115.572 19.6308C115.758 19.9493 116.009 20.2105 116.323 20.4135C116.652 20.6018 117.024 20.6964 117.439 20.6964C117.839 20.6964 118.196 20.6018 118.512 20.4135C118.84 20.2105 119.098 19.9493 119.284 19.6308C119.47 19.2975 119.563 18.9348 119.563 18.5434V12.2163H122.888V18.6302C122.888 19.5579 122.673 20.4065 122.244 21.1746C121.815 21.9279 121.193 22.53 120.378 22.9788C119.577 23.4135 118.604 23.6313 117.46 23.6313ZM101.257 23.3701V20.6964H106.556C106.699 20.6964 106.828 20.6669 106.942 20.6088C107.056 20.5367 107.15 20.4422 107.221 20.3267C107.291 20.2125 107.328 20.0807 107.328 19.9462C107.328 19.8117 107.291 19.6799 107.221 19.5657C107.154 19.4539 107.057 19.3634 106.942 19.3045C106.826 19.2317 106.692 19.1941 106.556 19.196H104.625C103.909 19.196 103.259 19.0797 102.673 18.848C102.116 18.6144 101.639 18.2215 101.3 17.7173C100.971 17.1957 100.806 16.5215 100.806 15.6953C100.806 15.0575 100.956 14.4778 101.257 13.9562C101.569 13.4362 102.004 13.0028 102.522 12.6945C103.063 12.3765 103.678 12.2113 104.303 12.2163H109.602V14.9126H104.818C104.628 14.9087 104.444 14.9789 104.303 15.1086C104.241 15.1708 104.191 15.2452 104.158 15.3275C104.125 15.4097 104.108 15.498 104.11 15.5868C104.11 15.7899 104.175 15.9635 104.303 16.1084C104.444 16.2381 104.628 16.3083 104.818 16.3045H106.706C107.507 16.3045 108.193 16.4277 108.765 16.6734C109.352 16.9059 109.802 17.2825 110.117 17.8049C110.446 18.3264 110.611 18.9999 110.611 19.8261C110.611 20.4786 110.446 21.073 110.117 21.6086C109.805 22.1424 109.361 22.5847 108.83 22.892C108.3 23.2113 107.7 23.3701 107.028 23.3701H101.257ZM94.0119 11.9559C94.9418 11.9559 95.7638 12.1078 96.4788 12.4124C97.1812 12.6838 97.8125 13.1152 98.3241 13.6733C98.8455 14.2202 99.2475 14.8722 99.504 15.5868C99.7755 16.3114 99.9116 17.1159 99.9116 18.0002C99.9116 19.1014 99.683 20.0803 99.2249 20.9351C98.8018 21.7543 98.1635 22.4391 97.3804 22.9137C96.5935 23.3918 95.6782 23.6313 94.6344 23.6313C94.1908 23.6313 93.7687 23.5732 93.368 23.4577C92.9885 23.3446 92.6273 23.176 92.2959 22.9571C91.9834 22.7423 91.7141 22.4693 91.5021 22.1526H91.4371V28.0891H88.1122V17.9994C88.1122 16.7671 88.3554 15.7015 88.8417 14.8033C89.3132 13.9192 90.0289 13.1936 90.9011 12.7154C91.7881 12.2086 92.8251 11.9552 94.0119 11.9552V11.9559ZM94.0119 14.8692C93.4972 14.8692 93.0468 14.9994 92.6607 15.2605C92.2882 15.507 92.0023 15.855 91.8019 16.3045C91.6023 16.7385 91.5021 17.2321 91.5021 17.7824C91.5021 18.3334 91.6023 18.8263 91.8019 19.2611C92.0023 19.6959 92.2882 20.0438 92.6607 20.305C93.0468 20.5515 93.4972 20.6747 94.0119 20.6747C94.5265 20.6747 94.9701 20.5507 95.3417 20.305C95.7157 20.042 96.0125 19.6813 96.2005 19.2611C96.4146 18.8263 96.5217 18.3334 96.5217 17.7824C96.5217 17.2321 96.4146 16.7392 96.2005 16.3045C96.0001 15.855 95.7141 15.5062 95.3417 15.2605C94.9701 14.9994 94.5265 14.8692 94.0119 14.8692ZM83.059 23.3701V12.2163H86.4061V23.3701H83.059ZM84.7322 10.9554C84.203 10.9554 83.7457 10.7601 83.3595 10.3687C82.9734 9.97736 82.7799 9.51314 82.7799 8.97684C82.7799 8.44054 82.9734 7.97709 83.3595 7.58571C83.7457 7.17961 84.203 6.97656 84.7322 6.97656C85.2614 6.97656 85.7194 7.17961 86.1056 7.58571C86.4918 7.97709 86.6845 8.44054 86.6845 8.97684C86.6845 9.51314 86.4918 9.97659 86.1056 10.3687C85.7194 10.7601 85.2614 10.9554 84.7322 10.9554ZM75.7851 23.6313C74.6557 23.6313 73.6401 23.3779 72.7385 22.8703C71.8541 22.3789 71.114 21.6588 70.5935 20.7832C70.0789 19.8989 69.8212 18.9061 69.8212 17.8041C69.8212 16.6881 70.0789 15.6953 70.5935 14.8258C71.114 13.9502 71.8541 13.23 72.7385 12.7387C73.6401 12.2163 74.6557 11.9559 75.7851 11.9559C76.9154 11.9559 77.9232 12.2163 78.8103 12.7387C79.6916 13.2266 80.4256 13.948 80.9339 14.8258C81.4631 15.6953 81.7277 16.6881 81.7277 17.8041C81.7277 18.9061 81.4631 19.8989 80.9339 20.7832C80.4256 21.661 79.6916 22.3823 78.8103 22.8703C77.9095 23.3779 76.9008 23.6313 75.7851 23.6313ZM75.7851 20.6964C76.3143 20.6964 76.7724 20.5654 77.1585 20.305C77.5448 20.0441 77.8557 19.6838 78.0594 19.2611C78.2743 18.8263 78.3813 18.3334 78.3813 17.7824C78.3813 17.2461 78.2743 16.7609 78.0594 16.3254C77.8556 15.9029 77.5447 15.5429 77.1585 15.2822C76.7724 15.0211 76.3143 14.8909 75.7851 14.8909C75.256 14.8909 74.791 15.0211 74.3911 15.2822C74.0046 15.5431 73.6935 15.9034 73.4895 16.3262C73.271 16.7795 73.1609 17.2787 73.1683 17.7832C73.1683 18.3334 73.2754 18.8263 73.4895 19.2611C73.6935 19.6838 74.0047 20.0441 74.3911 20.305C74.791 20.5654 75.256 20.6964 75.7851 20.6964ZM59.0144 27.7845V24.8922H64.5057C64.7206 24.8922 64.8995 24.8202 65.0425 24.6752C65.1123 24.6128 65.1676 24.5356 65.2046 24.4491C65.2416 24.3625 65.2594 24.2688 65.2567 24.1746V21.7178H65.1924C64.9208 22.038 64.611 22.3228 64.2702 22.5657C63.9551 22.7982 63.5972 22.9718 63.1973 23.088C62.7717 23.2093 62.331 23.2677 61.8889 23.2616C60.9162 23.2616 60.0437 23.0291 59.2713 22.5657C58.5135 22.0875 57.9124 21.428 57.4689 20.5871C57.0407 19.747 56.8258 18.7899 56.8258 17.7173C56.8258 16.6594 57.0475 15.6953 57.4911 14.8258C57.9484 13.9562 58.6137 13.2603 59.4862 12.7387C60.358 12.2163 61.424 11.9559 62.6827 11.9559C63.884 11.9559 64.921 12.2094 65.7935 12.717C66.6697 13.199 67.386 13.9323 67.8528 14.825C68.3392 15.724 68.5824 16.7826 68.5824 18.0002V24.5226C68.5824 25.5223 68.2895 26.3128 67.703 26.8925C67.131 27.4869 66.3372 27.7838 65.3217 27.7838L59.0144 27.7845ZM62.7041 20.4352C63.2187 20.4352 63.6622 20.319 64.0347 20.0872C64.4021 19.8454 64.6983 19.5075 64.8919 19.1092C65.0953 18.6899 65.1983 18.2279 65.1924 17.7607C65.1924 17.2391 65.093 16.7609 64.8927 16.3262C64.6923 15.8914 64.4063 15.5504 64.0339 15.3039C63.6622 15.0428 63.2187 14.9126 62.7033 14.9126C62.2032 14.9126 61.7597 15.0358 61.3735 15.2822C61.0018 15.5287 60.7158 15.8619 60.5155 16.282C60.3159 16.7028 60.2157 17.1732 60.2157 17.6956C60.2157 18.2032 60.3151 18.6667 60.5155 19.0875C60.7158 19.4928 61.0018 19.8191 61.3743 20.0655C61.7597 20.312 62.2032 20.4352 62.7041 20.4352ZM50.0665 23.6313C48.9371 23.6313 47.9215 23.3779 47.0207 22.8703C46.136 22.3791 45.3955 21.6589 44.875 20.7832C44.3603 19.8989 44.1026 18.9061 44.1026 17.8041C44.1026 16.6881 44.3603 15.6953 44.875 14.8258C45.3955 13.95 46.136 13.2299 47.0207 12.7387C47.9215 12.2163 48.9371 11.9559 50.0665 11.9559C51.1968 11.9559 52.2047 12.2163 53.0917 12.7387C53.973 13.2267 54.707 13.948 55.2153 14.8258C55.7445 15.6953 56.0091 16.6881 56.0091 17.8041C56.0091 18.9061 55.7445 19.8989 55.2153 20.7832C54.707 21.6609 53.973 22.3823 53.0917 22.8703C52.1909 23.3779 51.1822 23.6313 50.0665 23.6313ZM50.0665 20.6964C50.5957 20.6964 51.053 20.5654 51.44 20.305C51.8261 20.0439 52.1369 19.6837 52.3408 19.2611C52.5549 18.8263 52.662 18.3334 52.662 17.7824C52.662 17.2461 52.5549 16.7609 52.3408 16.3254C52.1369 15.903 51.826 15.5431 51.44 15.2822C51.0538 15.0211 50.5957 14.8909 50.0665 14.8909C49.5374 14.8909 49.0724 15.0211 48.6725 15.2822C48.286 15.5431 47.9749 15.9034 47.7709 16.3262C47.5524 16.7795 47.4424 17.2787 47.4497 17.7832C47.4497 18.3334 47.5568 18.8263 47.7709 19.2611C47.975 19.6838 48.2861 20.0441 48.6725 20.305C49.0724 20.5654 49.5374 20.6964 50.0665 20.6964ZM39.4172 23.3701C38.4874 23.3701 37.6722 23.1609 36.9717 22.7401C36.2904 22.3397 35.7275 21.7617 35.3414 21.0661C34.9552 20.3701 34.7617 19.6013 34.7617 18.7612V8.15069H38.3658V19.0216C38.3658 19.3704 38.4881 19.6742 38.7305 19.9353C38.9737 20.1957 39.2735 20.3267 39.6314 20.3267H43.6002V23.3701H39.4172Z" fill="black"/>
  </g>
  <defs>
    <clipPath id="clip0_662_3930">
      <rect width="143" height="31" fill="white"/>
    </clipPath>
  </defs>
</svg>