<svg width="36" height="36" viewBox="0 0 36 36" fill="none" xmlns="http://www.w3.org/2000/svg">
<path d="M25.1253 5.34V3C25.1253 2.385 24.6153 1.875 24.0003 1.875C23.3853 1.875 22.8753 2.385 22.8753 3V5.25H13.1253V3C13.1253 2.385 12.6153 1.875 12.0003 1.875C11.3853 1.875 10.8753 2.385 10.8753 3V5.34C6.82534 5.715 4.86034 8.13 4.56034 11.715C4.53034 12.15 4.89034 12.51 5.31034 12.51H30.6903C31.1253 12.51 31.4853 12.135 31.4403 11.715C31.1403 8.13 29.1753 5.715 25.1253 5.34Z" fill="#1D417F"/>
<path opacity="0.4" d="M30 14.7617C30.825 14.7617 31.5 15.4367 31.5 16.2617V25.5017C31.5 30.0017 29.25 33.0017 24 33.0017H12C6.75 33.0017 4.5 30.0017 4.5 25.5017V16.2617C4.5 15.4367 5.175 14.7617 6 14.7617H30Z" fill="#1D417F"/>
<path d="M12.75 22.4983C12.36 22.4983 11.97 22.3333 11.685 22.0633C11.415 21.7783 11.25 21.3883 11.25 20.9983C11.25 20.6083 11.415 20.2184 11.685 19.9334C12.105 19.5134 12.765 19.3783 13.32 19.6183C13.515 19.6933 13.68 19.7984 13.815 19.9334C14.085 20.2184 14.25 20.6083 14.25 20.9983C14.25 21.3883 14.085 21.7783 13.815 22.0633C13.53 22.3333 13.14 22.4983 12.75 22.4983Z" fill="#1D417F"/>
<path d="M18 22.4983C17.61 22.4983 17.22 22.3333 16.935 22.0633C16.665 21.7783 16.5 21.3883 16.5 20.9983C16.5 20.6083 16.665 20.2184 16.935 19.9334C17.07 19.7984 17.235 19.6933 17.43 19.6183C17.985 19.3783 18.645 19.5134 19.065 19.9334C19.335 20.2184 19.5 20.6083 19.5 20.9983C19.5 21.3883 19.335 21.7783 19.065 22.0633C18.99 22.1233 18.915 22.1833 18.84 22.2433C18.75 22.3033 18.66 22.3484 18.57 22.3784C18.48 22.4234 18.39 22.4534 18.3 22.4684C18.195 22.4834 18.105 22.4983 18 22.4983Z" fill="#1D417F"/>
<path d="M23.25 22.5C22.86 22.5 22.47 22.335 22.185 22.065C21.915 21.78 21.75 21.39 21.75 21C21.75 20.61 21.915 20.22 22.185 19.935C22.335 19.8 22.485 19.695 22.68 19.62C22.95 19.5 23.25 19.47 23.55 19.53C23.64 19.545 23.73 19.575 23.82 19.62C23.91 19.65 24 19.695 24.09 19.755C24.165 19.815 24.24 19.875 24.315 19.935C24.585 20.22 24.75 20.61 24.75 21C24.75 21.39 24.585 21.78 24.315 22.065C24.24 22.125 24.165 22.185 24.09 22.245C24 22.305 23.91 22.35 23.82 22.38C23.73 22.425 23.64 22.455 23.55 22.47C23.445 22.485 23.34 22.5 23.25 22.5Z" fill="#1D417F"/>
<path d="M12.75 27.75C12.555 27.75 12.36 27.705 12.18 27.63C11.985 27.555 11.835 27.45 11.685 27.315C11.415 27.03 11.25 26.64 11.25 26.25C11.25 25.86 11.415 25.47 11.685 25.185C11.835 25.05 11.985 24.945 12.18 24.87C12.45 24.75 12.75 24.72 13.05 24.78C13.14 24.795 13.23 24.825 13.32 24.87C13.41 24.9 13.5 24.945 13.59 25.005C13.665 25.065 13.74 25.125 13.815 25.185C14.085 25.47 14.25 25.86 14.25 26.25C14.25 26.64 14.085 27.03 13.815 27.315C13.74 27.375 13.665 27.45 13.59 27.495C13.5 27.555 13.41 27.6 13.32 27.63C13.23 27.675 13.14 27.705 13.05 27.72C12.945 27.735 12.855 27.75 12.75 27.75Z" fill="#1D417F"/>
<path d="M18 27.7508C17.61 27.7508 17.22 27.5858 16.935 27.3158C16.665 27.0308 16.5 26.6408 16.5 26.2508C16.5 25.8608 16.665 25.4708 16.935 25.1858C17.49 24.6308 18.51 24.6308 19.065 25.1858C19.335 25.4708 19.5 25.8608 19.5 26.2508C19.5 26.6408 19.335 27.0308 19.065 27.3158C18.78 27.5858 18.39 27.7508 18 27.7508Z" fill="#1D417F"/>
<path d="M23.25 27.7508C22.86 27.7508 22.47 27.5858 22.185 27.3158C21.915 27.0308 21.75 26.6408 21.75 26.2508C21.75 25.8608 21.915 25.4708 22.185 25.1858C22.74 24.6308 23.76 24.6308 24.315 25.1858C24.585 25.4708 24.75 25.8608 24.75 26.2508C24.75 26.6408 24.585 27.0308 24.315 27.3158C24.03 27.5858 23.64 27.7508 23.25 27.7508Z" fill="#1D417F"/>
</svg>
