<svg width="37" height="37" viewBox="0 0 37 37" fill="none" xmlns="http://www.w3.org/2000/svg">
<path opacity="0.4" d="M18.1764 21.9072L13.1352 26.9485C12.5802 26.4552 12.0406 25.9464 11.5164 25.4222C9.92849 23.8189 8.49475 22.1385 7.21516 20.381C5.951 18.6235 4.9335 16.866 4.1935 15.1239C3.4535 13.3664 3.0835 11.686 3.0835 10.0827C3.0835 9.03433 3.2685 8.03225 3.6385 7.10725C4.0085 6.16683 4.59433 5.3035 5.41141 4.53266C6.39808 3.56141 7.47725 3.0835 8.61808 3.0835C9.04975 3.0835 9.48141 3.176 9.86683 3.361C10.2677 3.546 10.6222 3.8235 10.8997 4.22433L14.4764 9.26558C14.7539 9.651 14.9543 10.0056 15.0931 10.3447C15.2318 10.6685 15.3089 10.9922 15.3089 11.2852C15.3089 11.6552 15.201 12.0252 14.9852 12.3797C14.7847 12.7343 14.4918 13.1043 14.1218 13.4743L12.9502 14.6922C12.7806 14.8618 12.7035 15.0622 12.7035 15.3089C12.7035 15.4322 12.7189 15.5402 12.7497 15.6635C12.796 15.7868 12.8422 15.8793 12.8731 15.9718C13.1506 16.4806 13.6285 17.1435 14.3068 17.9452C15.0006 18.7468 15.7406 19.5639 16.5422 20.381C17.0972 20.9206 17.6368 21.4447 18.1764 21.9072Z" fill="#1D417F"/>
<path d="M33.8702 28.2588C33.8702 28.6904 33.7931 29.1375 33.639 29.5692C33.5927 29.6925 33.5465 29.8159 33.4848 29.9392C33.2227 30.4942 32.8836 31.0184 32.4365 31.5117C31.6811 32.3442 30.8486 32.9454 29.9081 33.3309C29.8927 33.3309 29.8773 33.3463 29.8619 33.3463C28.9523 33.7163 27.9656 33.9167 26.9019 33.9167C25.3294 33.9167 23.649 33.5467 21.8761 32.7913C20.1031 32.0359 18.3302 31.0184 16.5727 29.7388C15.9715 29.2917 15.3702 28.8446 14.7998 28.3667L19.8411 23.3254C20.2727 23.6492 20.6581 23.8959 20.9819 24.0654C21.059 24.0963 21.1515 24.1425 21.2594 24.1888C21.3827 24.235 21.5061 24.2504 21.6448 24.2504C21.9069 24.2504 22.1073 24.1579 22.2769 23.9884L23.4486 22.8321C23.834 22.4467 24.204 22.1538 24.5586 21.9688C24.9131 21.7529 25.2677 21.645 25.6531 21.645C25.9461 21.645 26.2544 21.7067 26.5936 21.8454C26.9327 21.9842 27.2873 22.1846 27.6727 22.4467L32.7756 26.0696C33.1765 26.3471 33.454 26.6709 33.6236 27.0563C33.7777 27.4417 33.8702 27.8271 33.8702 28.2588Z" fill="#1D417F"/>
</svg>
