<svg xmlns="http://www.w3.org/2000/svg" width="22" height="22" viewBox="0 0 22 22" fill="none">
  <path d="M10.1279 13.7029L8.43203 15.3987C8.07453 15.7562 7.5062 15.7562 7.13953 15.4079C7.0387 15.307 6.93787 15.2154 6.83703 15.1145C5.89287 14.1612 5.04036 13.162 4.27953 12.117C3.52786 11.072 2.92286 10.027 2.48286 8.9912C2.05203 7.9462 1.83203 6.94703 1.83203 5.9937C1.83203 5.37036 1.94203 4.77453 2.16203 4.22453C2.38203 3.66536 2.73036 3.15203 3.2162 2.6937C3.80286 2.1162 4.44453 1.83203 5.12286 1.83203C5.37953 1.83203 5.6362 1.88703 5.86537 1.99703C6.1037 2.10703 6.31453 2.27203 6.47953 2.51036L8.6062 5.50786C8.7712 5.73703 8.89037 5.94786 8.97287 6.14953C9.05537 6.34203 9.1012 6.53453 9.1012 6.7087C9.1012 6.9287 9.03703 7.1487 8.9087 7.35953C8.78953 7.57036 8.61537 7.79036 8.39537 8.01036L7.6987 8.73453C7.59786 8.83536 7.55203 8.95453 7.55203 9.1012C7.55203 9.17453 7.5612 9.2387 7.57953 9.31203C7.60703 9.38536 7.63453 9.44036 7.65287 9.49536C7.81787 9.79786 8.10203 10.192 8.50536 10.6687C8.91786 11.1454 9.35786 11.6312 9.83453 12.117C9.9262 12.2087 10.027 12.3004 10.1187 12.392C10.4854 12.7495 10.4945 13.3362 10.1279 13.7029Z" fill="#1D417F"/>
  <path d="M20.1399 16.8036C20.1399 17.0603 20.0941 17.3261 20.0024 17.5828C19.9749 17.6561 19.9474 17.7294 19.9108 17.8028C19.7549 18.1328 19.5533 18.4444 19.2874 18.7378C18.8383 19.2328 18.3433 19.5903 17.7841 19.8194C17.7749 19.8194 17.7658 19.8286 17.7566 19.8286C17.2158 20.0486 16.6291 20.1678 15.9966 20.1678C15.0616 20.1678 14.0624 19.9478 13.0083 19.4986C11.9541 19.0494 10.8999 18.4444 9.85495 17.6836C9.49745 17.4178 9.13995 17.1519 8.80078 16.8678L11.7983 13.8703C12.0549 14.0628 12.2841 14.2094 12.4766 14.3103C12.5224 14.3286 12.5774 14.3561 12.6416 14.3836C12.7149 14.4111 12.7883 14.4203 12.8708 14.4203C13.0266 14.4203 13.1458 14.3653 13.2466 14.2644L13.9433 13.5769C14.1724 13.3478 14.3924 13.1736 14.6033 13.0636C14.8141 12.9353 15.0249 12.8711 15.2541 12.8711C15.4283 12.8711 15.6116 12.9078 15.8133 12.9903C16.0149 13.0728 16.2258 13.1919 16.4549 13.3478L19.4891 15.5019C19.7274 15.6669 19.8924 15.8594 19.9933 16.0886C20.0849 16.3178 20.1399 16.5469 20.1399 16.8036Z" fill="#1D417F"/>
</svg>