<svg width="42" height="42" viewBox="0 0 42 42" fill="none" xmlns="http://www.w3.org/2000/svg">
<path d="M16.1755 10.3733C13.6701 7.85812 10.5487 5.05367 7.64895 3.08935C6.39264 2.23836 5.31164 1.64036 4.43581 1.31198C3.14965 0.829926 2.17639 0.906806 1.54269 1.54051C0.908979 2.17422 0.8321 3.14763 1.31416 4.43356C1.64261 5.30947 2.24054 6.39046 3.09152 7.6467C3.67233 8.50409 4.35503 9.42047 5.12038 10.3733H1V41H41.0022V10.3733H16.1755ZM17.6005 15.3154C19.4622 17.4269 20.9799 19.4155 21.9343 21.0067C21.7565 21.131 21.5883 21.2718 21.4312 21.4289C21.274 21.5861 21.1331 21.7543 21.0089 21.9322C19.4176 20.9778 17.429 19.4601 15.3175 17.5984L17.6005 15.3154ZM3.45255 3.45038C4.01657 3.63641 5.1071 4.1394 7.00056 5.49416C9.22631 7.08683 11.8497 9.36148 14.3874 11.8991C14.9482 12.4599 15.4932 13.0223 16.0197 13.5815L13.5837 16.0175C13.0245 15.491 12.4621 14.946 11.9013 14.3851C9.36366 11.8475 7.089 9.22413 5.49634 6.99831C4.14158 5.10492 3.63858 4.0144 3.45255 3.45038ZM3.34388 12.7172H7.10486C8.07835 13.8134 9.1331 14.9317 10.2439 16.0425C11.5849 17.3836 12.9237 18.631 14.2135 19.7488H3.34388V12.7172ZM38.6583 38.6561H3.34388V22.0927H17.0978C18.2797 22.9837 19.3758 23.7157 20.3395 24.2519C20.3759 25.5297 20.9728 26.7715 21.8455 27.6441C23.3002 29.0988 27.6422 29.6967 28.4979 29.8017L29.9868 29.9846L29.8039 28.4956C29.7043 27.6844 29.1616 23.7398 27.8658 22.0927H38.6583V38.6561ZM23.0885 23.0863C23.8555 22.3195 25.2238 22.7356 25.9889 23.5007C26.4376 23.9493 26.9164 25.5667 27.2329 27.2307C25.5688 26.9142 23.9515 26.4353 23.5029 25.9868C22.7337 25.2177 22.324 23.8508 23.0885 23.0863ZM38.6583 19.7488H23.9125C22.7119 17.7603 20.7866 15.2987 18.4176 12.7172H38.6583V19.7488Z" fill="black" stroke="black" stroke-width="0.1"/>
</svg>
