<svg xmlns="http://www.w3.org/2000/svg" width="40" height="40" viewBox="0 0 40 40" fill="none">
  <g clip-path="url(#clip0_662_4497)">
    <path d="M39.6047 19.7377L33.2312 4.48302L27.0815 7.05247C27.1587 6.32716 27.1587 5.30093 26.7652 4.56018C25.8855 2.91667 23.8331 2.29167 22.1895 3.1713C20.546 4.05093 19.921 6.10339 20.8006 7.74691C21.1093 8.32562 21.5723 8.7963 22.1432 9.11265L15.5692 11.8519C15.4226 11.3889 15.1988 10.9491 14.9133 10.5556C14.9982 10.5093 15.0676 10.4552 15.1371 10.3858C15.2991 10.2238 15.3994 10.0077 15.3994 9.77623L15.3685 7.22994H15.8932C16.0167 7.22994 16.1324 7.17593 16.2173 7.09105C16.3099 7.00617 16.3562 6.88272 16.3562 6.75926L16.2636 0L15.3377 0.0154321L15.4226 6.30401L3.05373 6.3966L2.96886 0L2.04293 0.0154321L2.12781 6.875C2.13552 7.12963 2.33614 7.32253 2.59077 7.33025H3.13089C3.13089 7.35339 3.16176 9.87654 3.16176 9.87654C3.16947 10.1543 3.30836 10.4089 3.53213 10.571L3.19262 11.1111C3.06145 11.3194 2.88398 11.8364 2.88398 11.8364H2.87626L1.52595 16.875L1.88089 17.9707L1.37935 18.1944C0.916387 18.4028 0.546017 18.7809 0.368547 19.2593C0.191078 19.7377 0.20651 20.2623 0.414844 20.7253L7.27441 36.0494L13.7019 33.1713C13.9334 33.071 14.0954 32.8549 14.1185 32.6003C14.1417 32.3457 14.026 32.0988 13.8176 31.9599C12.992 31.3812 12.421 30.7562 12.2513 30.2469C11.8192 28.966 12.5059 27.5694 13.7945 27.1373C15.0753 26.7052 16.4719 27.392 16.904 28.6806C17.1124 29.2901 17.0661 29.9614 16.7806 30.5401C16.6571 30.787 16.7034 31.0802 16.8963 31.2731C17.0815 31.4738 17.3747 31.5355 17.6216 31.4198L22.9611 29.0278C23.2158 28.9198 23.4318 28.7346 23.5861 28.5031L24.3963 28.1713C24.4889 28.9352 24.7744 29.6605 25.2297 30.2855C25.1448 30.3318 25.0753 30.3935 25.0059 30.463C24.8361 30.625 24.7435 30.8488 24.7435 31.0802L24.7821 33.6188H24.2574C24.134 33.6188 24.0182 33.6728 23.9334 33.7577C23.8408 33.8426 23.7945 33.966 23.8022 34.0895L23.8871 39.9151H24.813L24.7281 34.5525L37.0969 34.4522L37.1818 39.9228H38.1077L38.0229 33.9892C38.0152 33.7346 37.8145 33.5339 37.5599 33.5262H37.0198C37.0198 33.5108 37.0275 33.4876 37.0275 33.4722L36.9889 30.9877C36.9889 30.7099 36.85 30.4475 36.6185 30.2932C36.796 30.0077 36.9349 29.7917 36.9581 29.7454C37.0892 29.5448 37.1895 29.321 37.2513 29.0818L37.2667 29.0278H37.2744L38.6247 23.9815L38.1309 22.4228L38.5784 22.2377C39.5506 21.8364 40.0136 20.733 39.6124 19.7608C39.6124 19.7531 39.6047 19.7454 39.6047 19.7377ZM7.28213 15.5556L7.20497 15.6867C6.68028 16.6127 5.7312 17.0216 5.72349 17.0216L5.38398 17.1605C5.38398 17.1605 5.91639 20.3781 6.06299 21.3117C6.14787 21.8673 6.04756 22.4383 5.76978 22.9244C5.56917 23.2099 5.24509 23.3796 4.89787 23.3796C4.65867 23.3719 4.55836 23.2485 4.51978 23.179L3.01515 18.4799L2.72966 17.5926L2.49046 16.8518L3.79447 11.9985C3.83305 11.8596 3.89478 11.7284 3.97194 11.6049C3.97194 11.6049 4.21114 11.2191 4.4812 10.8025L13.8639 10.7253C14.2652 11.1497 14.5584 11.6667 14.7204 12.2299L7.28213 15.5556ZM14.3037 9.8071H14.2883V9.79167L4.28058 9.86883C4.21114 9.87654 4.14941 9.85339 4.0954 9.81481V9.72222L4.06454 7.39197C4.11855 7.36111 4.18028 7.33796 4.242 7.33796L14.2652 7.2608C14.3346 7.25309 14.3963 7.27623 14.4503 7.31481L14.4889 9.75309C14.4349 9.78395 14.3655 9.8071 14.3037 9.8071ZM22.5831 28.179L17.8531 30.3009C18.3084 28.4877 17.2127 26.6512 15.3994 26.196C13.5861 25.7407 11.7497 26.8364 11.2945 28.6497C11.1324 29.2747 11.1633 29.9383 11.3639 30.5478C11.6263 31.3117 12.3284 31.9907 12.9689 32.4846L7.72966 34.8302L1.24818 20.3472C1.14015 20.108 1.13244 19.838 1.23275 19.591C1.32534 19.3441 1.51052 19.1512 1.74972 19.0432L2.15867 18.858L3.67102 23.5725C3.9025 24.0123 4.35003 24.2978 4.85157 24.3056C4.85157 24.3056 6.05528 24.3287 6.5491 23.4105V23.3951C6.93491 22.716 7.08151 21.929 6.95805 21.1574C6.84231 20.4167 6.52596 18.4799 6.39478 17.7006C7.01207 17.3611 7.53676 16.8673 7.92256 16.2809L15.7544 12.7701C15.7544 12.7701 15.9704 12.6466 16.1402 12.6852C16.2405 12.7238 16.3331 12.8395 16.3794 12.9398L18.8022 18.4799C18.9025 18.7346 19.1571 18.8889 19.4272 18.8735C19.6973 18.858 19.9287 18.6728 20.0136 18.4182C20.2219 17.716 20.7312 17.1528 21.4102 16.875C22.6139 16.3349 24.0337 16.8673 24.5738 18.071C25.0753 19.1821 24.6664 20.4861 23.617 21.1111C22.9457 21.4892 21.7729 21.3966 21.3022 21.3426C21.0553 21.3117 20.8084 21.4198 20.654 21.6204C20.654 21.6281 20.4303 21.8827 20.5769 22.3225L22.8685 27.4306C22.9534 27.6235 22.9226 27.8549 22.7914 28.017C22.7451 28.0864 22.6679 28.1481 22.5831 28.179ZM36.063 31.1188L36.1016 33.4491C36.0476 33.4877 35.9858 33.5108 35.9164 33.5031L25.8932 33.5802C25.8238 33.588 25.7621 33.5648 25.7081 33.5262L25.6695 31.1265L36.063 31.1188ZM36.3562 28.8426C36.3176 28.9815 36.2559 29.1126 36.1787 29.2361V29.2515C36.1787 29.2515 35.9473 29.6296 35.6772 30.0463L35.5846 30.1929H26.3639L26.2868 30.1157C25.6926 29.483 25.3377 28.6574 25.2914 27.7855L31.9735 25C31.8269 25.2623 31.688 25.5401 31.5568 25.8179L32.3979 26.2114C32.5676 25.8488 32.7528 25.4938 32.9457 25.1543C33.1386 24.8148 33.401 24.5216 33.7019 24.2747C33.9256 24.0895 34.1648 23.9429 34.4272 23.8194L34.7667 23.6806L34.7127 23.3179C34.705 23.3102 34.6818 23.1404 34.6355 22.8858C34.4966 22.0525 34.2034 20.2469 34.0877 19.537C34.0028 18.9815 34.1031 18.4105 34.3809 17.9244C34.5815 17.6389 34.9056 17.4614 35.2528 17.4614C35.492 17.4691 35.5923 17.5926 35.6309 17.6698L36.9889 21.8981L37.2744 22.7855L37.6602 23.9969L36.3562 28.8426ZM38.7559 20.8488C38.6556 21.088 38.4627 21.2809 38.2235 21.3812L37.8454 21.5432L36.4719 17.2685C36.2405 16.8287 35.7929 16.5509 35.2991 16.5355C34.1108 16.5664 33.5939 17.4383 33.5939 17.4383C33.2081 18.1173 33.0615 18.9043 33.1849 19.6759C33.3006 20.4244 33.617 22.3534 33.7482 23.1327C33.5707 23.233 33.401 23.3488 33.2389 23.4722L23.8253 27.4074C23.8022 27.2839 21.6571 22.4537 21.6571 22.4537C22.421 22.5077 23.3006 22.4691 23.9565 22.1219L24.2497 21.9444C24.6047 21.7052 24.9133 21.4043 25.1525 21.0494L25.2528 20.8951C25.4303 20.6018 25.5615 20.2855 25.6463 19.9537C25.654 19.9383 25.654 19.9228 25.654 19.9074H25.6618C25.7466 19.6065 25.7852 19.2978 25.7852 18.9815C25.7852 18.642 25.7312 18.2948 25.6309 17.9707C25.0753 16.1883 23.1772 15.2006 21.3948 15.7562C20.5383 16.0262 19.8207 16.6281 19.404 17.4306L18.8562 16.2037C18.6787 15.7639 17.4982 13.1713 17.2358 12.5694C17.1741 12.4537 17.1047 12.338 17.0198 12.2377L23.1232 9.72222C23.3778 9.6142 23.5321 9.35957 23.5167 9.08951C23.509 8.81944 23.3238 8.58796 23.0692 8.5108C21.7729 8.11728 21.0398 6.75154 21.4334 5.44753C21.4719 5.32407 21.5182 5.20833 21.5723 5.09259C21.8732 4.45988 22.4287 3.98148 23.1077 3.7963C24.2189 3.47994 25.3994 3.97376 25.9473 4.99228C26.3099 5.6713 26.1864 6.83642 26.117 7.3071C26.0861 7.56173 26.1864 7.80864 26.3871 7.96296C26.5877 8.11728 26.85 8.15586 27.0815 8.05555L32.7297 5.69444L38.7482 20.0926C38.8562 20.3318 38.8562 20.6096 38.7559 20.8488Z" fill="black" stroke="black" stroke-width="0.5"/>
    <path d="M10.604 36.259L9.78125 36.6836L10.8499 38.7543L11.6727 38.3296L10.604 36.259Z" fill="black"/>
    <path d="M4.17412 36.2965L3.10547 38.3672L3.92825 38.7918L4.9969 36.7212L4.17412 36.2965Z" fill="black"/>
    <path d="M6.93975 37.6236L6.88281 39.9531L7.80846 39.9757L7.86539 37.6462L6.93975 37.6236Z" fill="black"/>
    <path d="M30.1822 1.30584L29.3594 1.73047L30.428 3.80113L31.2508 3.3765L30.1822 1.30584Z" fill="black"/>
    <path d="M37.1077 1.33559L36.0391 3.40625L36.8618 3.83088L37.9305 1.76022L37.1077 1.33559Z" fill="black"/>
    <path d="M33.178 0.100139L33.1211 2.42969L34.0467 2.45231L34.1037 0.122761L33.178 0.100139Z" fill="black"/>
  </g>
  <defs>
    <clipPath id="clip0_662_4497">
      <rect width="40" height="40" fill="white"/>
    </clipPath>
  </defs>
</svg>