<svg xmlns="http://www.w3.org/2000/svg" width="40" height="40" viewBox="0 0 40 40" fill="none">
  <path d="M15.6897 10.9877H11.8113V3.39844H28.1897V6.50953L26.8016 5.12141C26.4202 4.74 25.8019 4.74 25.4205 5.12141C25.0391 5.50273 25.0391 6.12109 25.4205 6.5025L28.4757 9.55773C28.4762 9.55828 28.477 9.55844 28.4776 9.55891C28.5662 9.64727 28.6723 9.71961 28.7925 9.76937C29.1574 9.92047 29.5775 9.83695 29.8568 9.55773L32.912 6.5025C33.2934 6.12117 33.2934 5.50281 32.912 5.12141C32.5307 4.74008 31.9123 4.74008 31.5309 5.12141L30.1427 6.50961V2.42188C30.1427 1.8825 29.7055 1.44531 29.1662 1.44531H10.8348C10.2955 1.44531 9.85828 1.8825 9.85828 2.42188V10.9877H5.97992C4.0568 10.9877 2.49219 12.5523 2.49219 14.4755V35.067C2.49219 36.9901 4.05672 38.5547 5.97992 38.5547H15.6898C17.6129 38.5547 19.1775 36.9901 19.1775 35.067V14.4755C19.1774 12.5523 17.6129 10.9877 15.6897 10.9877ZM17.2243 35.067C17.2243 35.9131 16.5359 36.6016 15.6897 36.6016H5.97992C5.13375 36.6016 4.44531 35.9131 4.44531 35.067V14.4755C4.44531 13.6293 5.13375 12.9409 5.97992 12.9409H15.6898C16.5359 12.9409 17.2244 13.6293 17.2244 14.4755L17.2243 35.067ZM34.0212 10.9877H24.3114C22.3883 10.9877 20.8237 12.5523 20.8237 14.4755V35.067C20.8237 36.9901 22.3883 38.5547 24.3114 38.5547H34.0212C35.9444 38.5547 37.509 36.9901 37.509 35.067V14.4755C37.5089 12.5523 35.9444 10.9877 34.0212 10.9877ZM35.5558 35.067C35.5558 35.9131 34.8673 36.6016 34.0212 36.6016H24.3114C23.4652 36.6016 22.7768 35.9131 22.7768 35.067V14.4755C22.7768 13.6293 23.4652 12.9409 24.3114 12.9409H34.0212C34.8674 12.9409 35.5559 13.6293 35.5559 14.4755V35.067H35.5558ZM15.4107 17.2377C15.4107 17.777 14.9734 18.2143 14.4341 18.2143H7.23547C6.69617 18.2143 6.25891 17.777 6.25891 17.2377C6.25891 16.6984 6.69617 16.2612 7.23547 16.2612H14.4341C14.9734 16.2612 15.4107 16.6984 15.4107 17.2377ZM15.4107 22.2601C15.4107 22.7994 14.9734 23.2366 14.4341 23.2366H7.23547C6.69617 23.2366 6.25891 22.7994 6.25891 22.2601C6.25891 21.7208 6.69617 21.2835 7.23547 21.2835H14.4341C14.9734 21.2835 15.4107 21.7207 15.4107 22.2601ZM15.4107 27.2823C15.4107 27.8216 14.9734 28.2589 14.4341 28.2589H7.23547C6.69617 28.2589 6.25891 27.8216 6.25891 27.2823C6.25891 26.743 6.69617 26.3058 7.23547 26.3058H14.4341C14.9734 26.3058 15.4107 26.743 15.4107 27.2823ZM15.4107 32.3047C15.4107 32.844 14.9734 33.2812 14.4341 33.2812H7.23547C6.69617 33.2812 6.25891 32.844 6.25891 32.3047C6.25891 31.7654 6.69617 31.3281 7.23547 31.3281H14.4341C14.9734 31.3281 15.4107 31.7654 15.4107 32.3047Z" fill="black"/>
</svg>