<svg width="44" height="38" viewBox="0 0 44 38" fill="none" xmlns="http://www.w3.org/2000/svg">
<path d="M39.4756 37.0112H4.49778C2.56701 37.0112 1 35.5139 1 33.675C1 33.3054 1.3134 33.0078 1.69956 33.0078H17.0898C17.476 33.0078 17.7894 33.3054 17.7894 33.675C17.7894 34.0434 17.476 34.3423 17.0898 34.3423H2.51804C2.80905 35.1189 3.58556 35.6767 4.49778 35.6767H39.4756C40.3865 35.6767 41.1672 35.1189 41.454 34.3423H26.8836C26.4974 34.3423 26.184 34.0434 26.184 33.675C26.184 33.3054 26.4974 33.0078 26.8836 33.0078H42.2739C42.66 33.0078 42.9734 33.3054 42.9734 33.675C42.9734 35.5139 41.4036 37.0112 39.4756 37.0112Z" fill="black" stroke="black" stroke-width="0.1"/>
<path d="M4.51206 31.6799C4.1259 31.6799 3.8125 31.381 3.8125 31.0128V9.66538C3.8125 8.56065 4.74291 7.66406 5.89998 7.66406H24.0885C24.4746 7.66406 24.788 7.96159 24.788 8.33117C24.788 8.69941 24.4746 8.99827 24.0885 8.99827H5.89998C5.51382 8.99827 5.21161 9.29847 5.21161 9.66538V31.0128C5.21161 31.381 4.89821 31.6799 4.51206 31.6799Z" fill="black" stroke="black" stroke-width="0.1"/>
<path d="M34.5803 11.7142C34.5747 11.7142 34.5705 11.7142 34.5635 11.7142C34.3621 11.7089 34.1704 11.6222 34.0417 11.4741L30.5439 7.47145C30.299 7.18726 30.3368 6.76698 30.6334 6.53083C30.9328 6.29601 31.3708 6.3347 31.6212 6.61755L34.6055 10.0331L41.7592 2.5909C42.0222 2.31872 42.4643 2.30271 42.747 2.54954C43.031 2.79771 43.0506 3.22065 42.7889 3.49283L35.0966 11.4981C34.9637 11.6355 34.7762 11.7142 34.5803 11.7142Z" fill="black" stroke="black" stroke-width="0.1"/>
<path d="M34.6017 17.0105C29.9706 17.0105 26.207 13.4202 26.207 9.00527C26.207 4.59036 29.9706 1 34.6017 1C36.0904 1 37.5524 1.37625 38.8298 2.08872C39.1628 2.27417 39.2748 2.68244 39.0817 3.00132C38.8844 3.32019 38.4535 3.42426 38.1247 3.24147C37.06 2.64642 35.8413 2.33421 34.6017 2.33421C30.743 2.33421 27.6061 5.32685 27.6061 9.00527C27.6061 12.6824 30.743 15.6763 34.6017 15.6763C38.4577 15.6763 41.5973 12.6824 41.5973 9.00527C41.5973 8.52228 41.5413 8.04063 41.4364 7.57366C41.3496 7.21342 41.5903 6.85719 41.968 6.77847C42.3528 6.70109 42.7194 6.92923 42.8019 7.2868C42.9292 7.85118 42.9964 8.42622 42.9964 9.00527C42.9964 13.4202 39.23 17.0105 34.6017 17.0105Z" fill="black" stroke="black" stroke-width="0.1"/>
<path d="M39.4732 31.6928C39.8595 31.6928 40.173 31.394 40.173 31.0257V18.3507C40.173 17.9811 39.8595 17.6836 39.4732 17.6836C39.0869 17.6836 38.7734 17.9811 38.7734 18.3507V31.0257C38.7734 31.394 39.0869 31.6928 39.4732 31.6928Z" fill="black" stroke="black" stroke-width="0.1"/>
<path d="M27.5744 25.6829C27.5744 26.0512 27.261 26.3501 26.8748 26.3501H19.8792C19.4917 26.3501 19.1797 26.0512 19.1797 25.6829C19.1797 25.3132 19.4917 25.0156 19.8792 25.0156H26.8748C27.261 25.0156 27.5744 25.3132 27.5744 25.6829Z" fill="black" stroke="black" stroke-width="0.1"/>
<path d="M33.1708 23.0149C33.1708 23.3832 32.8574 23.6821 32.4713 23.6821H19.8792C19.4917 23.6821 19.1797 23.3832 19.1797 23.0149C19.1797 22.6452 19.4917 22.3476 19.8792 22.3476H32.4713C32.8574 22.3476 33.1708 22.6452 33.1708 23.0149Z" fill="black" stroke="black" stroke-width="0.1"/>
<path d="M33.1708 20.3547C33.1708 20.723 32.8574 21.022 32.4713 21.022H19.8792C19.4917 21.022 19.1797 20.723 19.1797 20.3547C19.1797 19.9851 19.4917 19.6875 19.8792 19.6875H32.4713C32.8574 19.6875 33.1708 19.9851 33.1708 20.3547Z" fill="black" stroke="black" stroke-width="0.1"/>
<path d="M12.9257 27.7024C14.8859 27.7024 16.4235 26.2374 16.4235 24.3668C16.4235 22.8525 15.3434 21.7491 13.2182 21.0873L13.0601 21.038C12.264 20.7898 11.5266 20.4563 11.5266 19.6971C11.5266 18.9112 12.1017 18.3629 12.9257 18.3629C13.9121 18.3629 14.5669 18.8659 14.5725 18.8712C14.8705 19.1087 15.3112 19.0714 15.5603 18.7912C15.8079 18.5083 15.7701 18.0894 15.4749 17.8519C15.4344 17.8185 14.4312 17.0273 12.9257 17.0273C11.3294 17.0273 10.1275 18.1748 10.1275 19.6958C10.1275 21.529 12.0065 22.1147 12.6235 22.3042L12.7816 22.3535C14.2913 22.8218 15.0244 23.4823 15.0244 24.3655C15.0244 25.5063 14.122 26.3668 12.9257 26.3668C11.6274 26.3668 10.883 25.5503 10.6872 25.2995C10.4549 25.0033 10.0142 24.9459 9.70918 25.1647C9.39578 25.3862 9.33422 25.8038 9.56508 26.0986C9.86169 26.4776 10.981 27.7024 12.9257 27.7024Z" fill="black" stroke="black" stroke-width="0.1"/>
<path d="M12.9342 29.0082C13.3205 29.0082 13.634 28.7106 13.634 28.3423V27.675C13.634 27.3054 13.3205 27.0078 12.9342 27.0078C12.5479 27.0078 12.2344 27.3054 12.2344 27.675V28.3423C12.2344 28.7106 12.5479 29.0082 12.9342 29.0082Z" fill="black" stroke="black" stroke-width="0.1"/>
<path d="M12.9342 17.6853C13.3205 17.6853 13.634 17.3864 13.634 17.0181V16.3508C13.634 15.9812 13.3205 15.6836 12.9342 15.6836C12.5479 15.6836 12.2344 15.9812 12.2344 16.3508V17.0181C12.2344 17.3864 12.5479 17.6853 12.9342 17.6853Z" fill="black" stroke="black" stroke-width="0.1"/>
<path d="M36.6825 31.6794H7.30112C6.91356 31.6794 6.60156 31.3806 6.60156 31.0123V10.9991C6.60156 10.6296 6.91356 10.332 7.30112 10.332H24.0905C24.4766 10.332 24.79 10.6296 24.79 10.9991C24.79 11.3674 24.4766 11.6662 24.0905 11.6662H8.00068V30.3452H35.9829V19.0044C35.9829 18.6348 36.2949 18.3373 36.6825 18.3373C37.0687 18.3373 37.3821 18.6348 37.3821 19.0044V31.0123C37.3821 31.3806 37.0687 31.6794 36.6825 31.6794Z" fill="black" stroke="black" stroke-width="0.1"/>
</svg>
