<svg xmlns="http://www.w3.org/2000/svg" width="22" height="22" viewBox="0 0 22 22" fill="none">
  <path d="M8.25 20.1654H13.75C15.2717 20.1654 16.5 18.937 16.5 17.4154V4.58203C16.5 3.06036 15.2717 1.83203 13.75 1.83203H8.25C6.72833 1.83203 5.5 3.06036 5.5 4.58203V17.4154C5.5 18.937 6.72833 20.1654 8.25 20.1654Z" fill="#1D417F"/>
  <path d="M4.1237 5.43448V16.5628C4.1237 16.8561 3.85786 17.067 3.5737 17.012C2.21703 16.7645 1.83203 15.9761 1.83203 14.0511V7.94615C1.83203 6.02115 2.21703 5.23281 3.5737 4.98531C3.85786 4.93031 4.1237 5.14114 4.1237 5.43448Z" fill="#1D417F"/>
  <path d="M20.1667 7.94615V14.0511C20.1667 15.9761 19.7817 16.7645 18.425 17.012C18.1408 17.067 17.875 16.847 17.875 16.5628V5.43448C17.875 5.14114 18.1408 4.93031 18.425 4.98531C19.7817 5.23281 20.1667 6.02115 20.1667 7.94615Z" fill="#1D417F"/>
</svg>