<svg xmlns="http://www.w3.org/2000/svg" width="40" height="40" viewBox="0 0 40 40" fill="none">
  <g clip-path="url(#clip0_662_4362)">
    <path d="M21.8153 28.1814C22.3174 28.1814 22.7244 27.7744 22.7244 27.2723C22.7244 26.7703 22.3174 26.3633 21.8153 26.3633C21.3133 26.3633 20.9062 26.7703 20.9062 27.2723C20.9062 27.7744 21.3133 28.1814 21.8153 28.1814Z" fill="black" stroke="black" stroke-width="0.5"/>
    <path d="M6.36609 33.6384C6.86816 33.6384 7.27516 33.2314 7.27516 32.7294C7.27516 32.2273 6.86816 31.8203 6.36609 31.8203C5.86403 31.8203 5.45703 32.2273 5.45703 32.7294C5.45703 33.2314 5.86403 33.6384 6.36609 33.6384Z" fill="black" stroke="black" stroke-width="0.5"/>
    <path d="M37.273 3.63672H6.36398C4.81852 3.63672 3.63672 4.81852 3.63672 6.36398V15.4549C3.63672 16.0004 4.00039 16.364 4.54578 16.364C5.09117 16.364 5.45484 16.0003 5.45484 15.4549V6.36406C5.45484 5.81859 5.81852 5.455 6.36391 5.455H37.273C37.8184 5.455 38.182 5.81867 38.182 6.36406V28.1823C38.182 28.7277 37.8184 29.0913 37.273 29.0913H15.4548C14.9094 29.0913 14.5458 29.455 14.5458 30.0004C14.5458 30.5458 14.9095 30.9095 15.4548 30.9095H17.273V33.6367C17.273 34.1822 16.9094 34.5458 16.364 34.5458H15.4549C14.9095 34.5458 14.5459 34.9095 14.5459 35.4548C14.5459 36.0002 14.9095 36.3639 15.4549 36.3639H28.1822C28.7277 36.3639 29.0913 36.0002 29.0913 35.4548C29.0913 34.9095 28.7276 34.5458 28.1822 34.5458H27.2731C26.7277 34.5458 26.3641 34.1821 26.3641 33.6367V30.9095H37.2731C38.8186 30.9095 40.0004 29.7277 40.0004 28.1822V6.36406C40.0003 4.81859 38.8185 3.63672 37.273 3.63672ZM18.9094 34.5459C19.0003 34.2731 19.0912 34.0004 19.0912 33.6368V30.9095H24.5457V33.6368C24.5457 34.0005 24.6366 34.2731 24.7275 34.5459H18.9094Z" fill="black" stroke="black" stroke-width="0.5"/>
    <path d="M35.452 23.6367H15.452C14.9066 23.6367 14.543 24.0004 14.543 24.5458C14.543 25.0912 14.9066 25.4548 15.452 25.4548H35.452C35.9975 25.4548 36.3611 25.0912 36.3611 24.5458C36.3611 24.0004 35.9975 23.6367 35.452 23.6367Z" fill="black" stroke="black" stroke-width="0.5"/>
    <path d="M10 18.1797H2.72727C1.1818 18.1797 0 19.3616 0 20.907V33.6342C0 35.1797 1.1818 36.3615 2.72727 36.3615H10C11.5455 36.3615 12.7273 35.1797 12.7273 33.6342V20.907C12.7273 19.3616 11.5455 18.1797 10 18.1797ZM10.9091 33.6342C10.9091 34.1797 10.5454 34.5433 10 34.5433H2.72727C2.1818 34.5433 1.8182 34.1796 1.8182 33.6342V20.907C1.8182 20.3615 2.18188 19.9979 2.72727 19.9979H10C10.5455 19.9979 10.9091 20.3616 10.9091 20.907V33.6342Z" fill="black" stroke="black" stroke-width="0.5"/>
  </g>
  <defs>
    <clipPath id="clip0_662_4362">
      <rect width="40" height="40" fill="white"/>
    </clipPath>
  </defs>
</svg>