<svg xmlns="http://www.w3.org/2000/svg" width="40" height="40" viewBox="0 0 40 40" fill="none">
  <g clip-path="url(#clip0_662_4469)">
    <path d="M1.45157 38.5484C3.45007 40.6066 6.99079 40.4533 8.80427 38.2338L14.0522 32.0012C16.6747 33.5577 19.6761 34.3887 22.8055 34.3887C27.3983 34.3887 31.7161 32.6002 34.9638 29.3527C38.2113 26.1051 39.9999 21.7872 39.9999 17.1944C39.9999 12.6016 38.2113 8.28379 34.9638 5.03614C31.7162 1.78848 27.3983 0 22.8056 0C18.2128 0 13.8949 1.78856 10.6473 5.03614C7.39972 8.28371 5.61116 12.6016 5.61116 17.1944C5.61116 20.3238 6.44223 23.3252 7.99867 25.9477L1.76612 31.1956C-0.454109 33.0097 -0.605761 36.5515 1.45157 38.5484ZM7.95515 17.1944C7.95515 9.00579 14.617 2.34391 22.8056 2.34391C30.9942 2.34391 37.6561 9.00579 37.6561 17.1944C37.6561 25.383 30.9942 32.0448 22.8056 32.0448C14.617 32.0448 7.95515 25.383 7.95515 17.1944ZM9.3372 27.8848C9.74333 28.3945 10.1797 28.885 10.6474 29.3527C11.1151 29.8204 11.6056 30.2567 12.1151 30.6628L9.10156 34.2417L5.75828 30.8984L9.3372 27.8848ZM2.33491 34.9031C2.36703 34.1525 2.70119 33.4725 3.27592 32.9886L3.9587 32.4136L7.5863 36.0412L7.01134 36.724C6.5274 37.2987 5.84751 37.6329 5.09683 37.665C3.58938 37.7657 2.23444 36.4107 2.33491 34.9031Z" fill="black"/>
    <path d="M20.043 22.0706H23.1737C23.7562 22.0706 24.2284 21.5984 24.2284 21.0158C24.2284 20.4333 23.7562 19.9611 23.1737 19.9611H21.0978V18.3556H22.9429C23.5254 18.3556 23.9976 17.8834 23.9976 17.3009C23.9976 16.7183 23.5254 16.2461 22.9429 16.2461H21.0978V14.6408H23.1737C23.7562 14.6408 24.2284 14.1686 24.2284 13.586C24.2284 13.0035 23.7562 12.5312 23.1737 12.5312H20.043C19.4605 12.5312 18.9883 13.0035 18.9883 13.586V21.0158C18.9883 21.5984 19.4605 22.0706 20.043 22.0706Z" fill="black"/>
    <path d="M17.1418 19.6093C17.3368 18.517 16.8469 17.0923 14.887 16.3693L13.1925 15.6938C12.7331 15.4985 12.759 14.8299 13.2361 14.683C13.2412 14.6814 13.2463 14.6798 13.2515 14.6784C14.2556 14.3759 15.2007 15.1289 15.2007 15.1289C15.6525 15.4984 16.3222 15.4794 16.7052 15.0389C17.1031 14.5834 17.0327 13.8848 16.5581 13.5141C16.4853 13.4529 14.7516 12.0232 12.643 12.6585C10.3973 13.2853 9.84848 16.2873 11.9108 17.4375C11.9543 17.457 12.9904 17.9181 14.157 18.3485C14.3918 18.435 15.1514 18.7553 15.0651 19.2385C15.0091 19.5522 14.6015 19.9941 13.8709 19.9941C13.1711 19.9941 12.4982 19.7183 12.0632 19.2548C11.6637 18.8291 10.9972 18.7603 10.5598 19.1467C10.1185 19.5366 10.0821 20.2106 10.4763 20.6457C11.316 21.5722 12.5533 22.1037 13.8709 22.1037C15.5081 22.1037 16.8837 21.0546 17.1418 19.6093Z" fill="black"/>
    <path d="M30.6086 22.104C33.2575 22.104 35.4126 19.9489 35.4126 17.3C35.4126 14.6512 33.2575 12.4961 30.6086 12.4961C27.9598 12.4961 25.8047 14.6511 25.8047 17.3C25.8047 19.949 27.9597 22.104 30.6086 22.104ZM30.6086 14.6057C32.0943 14.6057 33.303 15.8144 33.303 17.3001C33.303 18.7858 32.0943 19.9945 30.6086 19.9945C29.1229 19.9945 27.9142 18.7858 27.9142 17.3001C27.9142 15.8144 29.1229 14.6057 30.6086 14.6057Z" fill="black"/>
  </g>
  <defs>
    <clipPath id="clip0_662_4469">
      <rect width="40" height="40" fill="white"/>
    </clipPath>
  </defs>
</svg>