<svg xmlns="http://www.w3.org/2000/svg" width="22" height="22" viewBox="0 0 22 22" fill="none">
  <path d="M18.793 15.3555H16.7305V13.293C16.7305 12.9171 16.4188 12.6055 16.043 12.6055C15.6671 12.6055 15.3555 12.9171 15.3555 13.293V15.3555H13.293C12.9171 15.3555 12.6055 15.6671 12.6055 16.043C12.6055 16.4188 12.9171 16.7305 13.293 16.7305H15.3555V18.793C15.3555 19.1688 15.6671 19.4805 16.043 19.4805C16.4188 19.4805 16.7305 19.1688 16.7305 18.793V16.7305H18.793C19.1688 16.7305 19.4805 16.4188 19.4805 16.043C19.4805 15.6671 19.1688 15.3555 18.793 15.3555Z" fill="#1D417F"/>
  <path d="M20.1667 7.8087V3.64703C20.1667 2.35453 19.58 1.83203 18.1225 1.83203H14.4192C12.9617 1.83203 12.375 2.35453 12.375 3.64703V7.79953C12.375 9.1012 12.9617 9.61453 14.4192 9.61453H18.1225C19.58 9.6237 20.1667 9.1012 20.1667 7.8087Z" fill="#1D417F"/>
  <path d="M9.6237 7.8087V3.64703C9.6237 2.35453 9.03703 1.83203 7.57953 1.83203H3.8762C2.4187 1.83203 1.83203 2.35453 1.83203 3.64703V7.79953C1.83203 9.1012 2.4187 9.61453 3.8762 9.61453H7.57953C9.03703 9.6237 9.6237 9.1012 9.6237 7.8087Z" fill="#1D417F"/>
  <path d="M9.6237 18.1225V14.4192C9.6237 12.9617 9.03703 12.375 7.57953 12.375H3.8762C2.4187 12.375 1.83203 12.9617 1.83203 14.4192V18.1225C1.83203 19.58 2.4187 20.1667 3.8762 20.1667H7.57953C9.03703 20.1667 9.6237 19.58 9.6237 18.1225Z" fill="#1D417F"/>
</svg>