<svg xmlns="http://www.w3.org/2000/svg" width="40" height="40" viewBox="0 0 40 40" fill="none">
  <g clip-path="url(#clip0_662_4343)">
    <path d="M15.7845 28.0282C15.6334 28.0282 15.4812 27.9762 15.357 27.8705L11.0837 24.2318C10.9363 24.1061 10.8516 23.9226 10.8516 23.7287C10.8516 23.5353 10.9367 23.3517 11.0837 23.2261L15.357 19.5874C15.6345 19.3508 16.0513 19.3843 16.2879 19.6618C16.5241 19.9397 16.4909 20.3565 16.2131 20.5927L12.5305 23.7287L16.2131 26.8648C16.4909 27.1014 16.5241 27.5182 16.2879 27.7957C16.1571 27.9493 15.9713 28.0282 15.7845 28.0282Z" fill="black" stroke="black" stroke-width="0.5"/>
    <path d="M24.2193 28.0282C24.0325 28.0282 23.8467 27.9493 23.7163 27.7957C23.4797 27.5182 23.5132 27.1014 23.7907 26.8648L27.4733 23.7287L23.7907 20.5927C23.5132 20.3565 23.4797 19.9397 23.7163 19.6618C23.9525 19.3843 24.3697 19.3508 24.6468 19.5874L28.9201 23.2261C29.0675 23.3517 29.1522 23.5353 29.1522 23.7287C29.1522 23.9226 29.0675 24.1061 28.9201 24.2318L24.6468 27.8705C24.5226 27.9762 24.3704 28.0282 24.2193 28.0282Z" fill="black" stroke="black" stroke-width="0.5"/>
    <path d="M18.4856 30.7628C18.4403 30.7628 18.3946 30.758 18.3486 30.7484C17.9918 30.6732 17.7634 30.3228 17.8385 29.966L20.5018 17.3212C20.577 16.9645 20.927 16.736 21.2841 16.8112C21.6409 16.8864 21.8693 17.2365 21.7942 17.5935L19.1309 30.2384C19.0653 30.5494 18.7911 30.7628 18.4856 30.7628Z" fill="black" stroke="black" stroke-width="0.5"/>
    <path d="M35.566 37.6466H4.43396C1.98924 37.6466 0 35.6577 0 33.2126V6.78943C0 4.34471 1.98924 2.35547 4.43396 2.35547H35.566C38.0108 2.35547 40 4.34471 40 6.78943V33.2126C40 35.6577 38.0108 37.6466 35.566 37.6466ZM4.43396 3.67622C2.71742 3.67622 1.32075 5.07289 1.32075 6.78943V33.2126C1.32075 34.9292 2.71742 36.3258 4.43396 36.3258H35.566C37.2826 36.3258 38.6792 34.9292 38.6792 33.2126V6.78943C38.6792 5.07289 37.2826 3.67622 35.566 3.67622H4.43396Z" fill="black" stroke="black" stroke-width="0.5"/>
    <path d="M39.3396 12.9301H0.660377C0.295548 12.9301 0 12.6346 0 12.2698C0 11.9053 0.295548 11.6094 0.660377 11.6094H39.3396C39.7045 11.6094 40 11.9053 40 12.2698C40 12.6346 39.7045 12.9301 39.3396 12.9301Z" fill="black" stroke="black" stroke-width="0.5"/>
    <path d="M11.2813 9.77344C10.1293 9.77344 9.19141 8.83557 9.19141 7.68359C9.19141 6.53125 10.1293 5.59375 11.2813 5.59375C12.4336 5.59375 13.3711 6.53125 13.3711 7.68359C13.3711 8.83557 12.4336 9.77344 11.2813 9.77344ZM11.2813 6.9145C10.8575 6.9145 10.5122 7.25943 10.5122 7.68359C10.5122 8.10775 10.8575 8.45268 11.2813 8.45268C11.7054 8.45268 12.0503 8.10775 12.0503 7.68359C12.0503 7.25943 11.7054 6.9145 11.2813 6.9145Z" fill="black" stroke="black" stroke-width="0.5"/>
    <path d="M4.86328 9.75391C3.71094 9.75391 2.77344 8.81641 2.77344 7.66406C2.77344 6.51172 3.71094 5.57422 4.86328 5.57422C6.01563 5.57422 6.95313 6.51172 6.95313 7.66406C6.95313 8.81641 6.01563 9.75391 4.86328 9.75391ZM4.86328 6.89497C4.43949 6.89497 4.09419 7.24027 4.09419 7.66406C4.09419 8.08822 4.43949 8.43315 4.86328 8.43315C5.28744 8.43315 5.63237 8.08822 5.63237 7.66406C5.63237 7.24027 5.28744 6.89497 4.86328 6.89497Z" fill="black" stroke="black" stroke-width="0.5"/>
    <path d="M17.7067 9.7926C16.5547 9.7926 15.6172 8.8551 15.6172 7.70276C15.6172 6.55078 16.5547 5.61328 17.7067 5.61328C18.859 5.61328 19.7965 6.55078 19.7965 7.70276C19.7965 8.8551 18.859 9.7926 17.7067 9.7926ZM17.7067 6.93367C17.2829 6.93367 16.9379 7.2786 16.9379 7.70276C16.9379 8.12692 17.2829 8.47185 17.7067 8.47185C18.1308 8.47185 18.4758 8.12692 18.4758 7.70276C18.4758 7.2786 18.1308 6.93367 17.7067 6.93367Z" fill="black" stroke="black" stroke-width="0.5"/>
  </g>
  <defs>
    <clipPath id="clip0_662_4343">
      <rect width="40" height="40" fill="white"/>
    </clipPath>
  </defs>
</svg>