<svg xmlns="http://www.w3.org/2000/svg" width="18" height="18" viewBox="0 0 18 18" fill="none">
  <g clip-path="url(#clip0_662_3973)">
    <path d="M6.18122 5.50348L1.39622 6.19723L1.31147 6.21448C1.18317 6.24854 1.06622 6.31603 0.972539 6.41008C0.878862 6.50412 0.811823 6.62134 0.778267 6.74977C0.744711 6.8782 0.74584 7.01323 0.781541 7.14108C0.817241 7.26893 0.886232 7.38501 0.98147 7.47748L4.44797 10.8517L3.63047 15.618L3.62072 15.7005C3.61287 15.8332 3.64042 15.9656 3.70056 16.0841C3.76069 16.2026 3.85126 16.3031 3.96297 16.3751C4.07468 16.4471 4.20354 16.4882 4.33633 16.4941C4.46913 16.4999 4.60109 16.4704 4.71872 16.4085L8.99822 14.1585L13.268 16.4085L13.343 16.443C13.4668 16.4917 13.6013 16.5067 13.7328 16.4863C13.8643 16.4659 13.988 16.4109 14.0912 16.3269C14.1944 16.243 14.2734 16.133 14.3201 16.0085C14.3668 15.8839 14.3795 15.7491 14.357 15.618L13.5387 10.8517L17.0067 7.47673L17.0652 7.41298C17.1488 7.31005 17.2036 7.18682 17.224 7.05582C17.2444 6.92483 17.2298 6.79076 17.1815 6.66727C17.1333 6.54379 17.0532 6.4353 16.9493 6.35286C16.8455 6.27042 16.7217 6.21698 16.5905 6.19798L11.8055 5.50348L9.66647 1.16848C9.60458 1.04288 9.50876 0.937113 9.38986 0.863155C9.27097 0.789198 9.13374 0.75 8.99372 0.75C8.8537 0.75 8.71647 0.789198 8.59758 0.863155C8.47868 0.937113 8.38286 1.04288 8.32097 1.16848L6.18122 5.50348Z" fill="#EFB900"/>
  </g>
  <defs>
    <clipPath id="clip0_662_3973">
      <rect width="18" height="18" fill="white"/>
    </clipPath>
  </defs>
</svg>